<mxfile host="65bd71144e">
    <diagram name="Page-1" id="i9hYesGqq067z_oLFOEn">
        <mxGraphModel dx="2778" dy="309" grid="1" gridSize="10" guides="1" tooltips="1" connect="1" arrows="1" fold="1" page="0" pageScale="1" pageWidth="827" pageHeight="1169" math="0" shadow="0">
            <root>
                <mxCell id="0"/>
                <mxCell id="urCsp88US3Rvxd7nxDVZ-52" value="Toggle" style="" parent="0"/>
                <mxCell id="0hETNHY3sNTcF9YFYVwX-57" value="" style="rounded=1;whiteSpace=wrap;html=1;fontSize=20;fontStyle=1;fillColor=#DAE8FC;strokeColor=default;strokeWidth=2;align=left;fillStyle=solid;arcSize=4;" parent="urCsp88US3Rvxd7nxDVZ-52" vertex="1">
                    <mxGeometry x="-650.37" y="1560" width="1460.37" height="1600" as="geometry"/>
                </mxCell>
                <mxCell id="xsCPCYvkKm-rd6Kjv4GH-3" value="" style="rounded=1;whiteSpace=wrap;html=1;fontSize=20;fontStyle=1;fillColor=#ffdbc4;strokeColor=#38112A;strokeWidth=3;align=left;fillStyle=solid;arcSize=6;" parent="urCsp88US3Rvxd7nxDVZ-52" vertex="1">
                    <mxGeometry x="-396.78" y="1621.75" width="1136.78" height="1223.25" as="geometry"/>
                </mxCell>
                <mxCell id="0hETNHY3sNTcF9YFYVwX-66" style="edgeStyle=orthogonalEdgeStyle;rounded=0;orthogonalLoop=1;jettySize=auto;html=1;entryX=0;entryY=0.5;entryDx=0;entryDy=0;exitX=0.5;exitY=0;exitDx=0;exitDy=0;" parent="urCsp88US3Rvxd7nxDVZ-52" source="DWezz2kGn4aSGZSSvi70-5" target="PnuRqYjMk-wBqvXui7f1-85" edge="1">
                    <mxGeometry relative="1" as="geometry"/>
                </mxCell>
                <mxCell id="DWezz2kGn4aSGZSSvi70-5" value="" style="rounded=1;whiteSpace=wrap;html=1;fontSize=20;fontStyle=1;fillColor=#dfddd2;strokeColor=#38112D;strokeWidth=3;align=left;fillStyle=solid;" parent="urCsp88US3Rvxd7nxDVZ-52" vertex="1">
                    <mxGeometry x="-600" y="1621.75" width="170" height="1228.25" as="geometry"/>
                </mxCell>
                <mxCell id="OHMMpdg7X5gBZiWQbqBY-10" value="&lt;font style=&quot;font-size: 20px;&quot;&gt;Design&lt;/font&gt;" style="text;strokeColor=none;fillColor=none;html=1;fontSize=24;fontStyle=1;verticalAlign=middle;align=right;" parent="urCsp88US3Rvxd7nxDVZ-52" vertex="1">
                    <mxGeometry x="630" y="1845.3200000000002" width="67" height="22.62" as="geometry"/>
                </mxCell>
                <mxCell id="OHMMpdg7X5gBZiWQbqBY-13" value="&lt;font style=&quot;font-size: 20px;&quot;&gt;Backend Dev&lt;/font&gt;" style="text;strokeColor=none;fillColor=none;html=1;fontSize=24;fontStyle=1;verticalAlign=middle;align=right;" parent="urCsp88US3Rvxd7nxDVZ-52" vertex="1">
                    <mxGeometry x="630" y="2470" width="67" height="22.62" as="geometry"/>
                </mxCell>
                <mxCell id="CIckr9WYRlozOKqikz8k-143" value="&lt;h1 style=&quot;text-align: left; margin-top: 0px;&quot;&gt;SAP Edition only - Offline Scenario&lt;/h1&gt;" style="text;html=1;whiteSpace=wrap;overflow=hidden;rounded=0;align=center;" parent="urCsp88US3Rvxd7nxDVZ-52" vertex="1">
                    <mxGeometry x="-119.52" y="1139.5" width="766.49" height="40" as="geometry"/>
                </mxCell>
                <mxCell id="NWQ9cC1nYAKU2ilUzBE1-3" value="&lt;font style=&quot;font-size: 20px;&quot;&gt;Administration&lt;/font&gt;" style="text;strokeColor=none;fillColor=none;html=1;fontSize=24;fontStyle=1;verticalAlign=middle;align=right;" parent="urCsp88US3Rvxd7nxDVZ-52" vertex="1">
                    <mxGeometry x="630" y="1640.0000000000005" width="67" height="22.62" as="geometry"/>
                </mxCell>
                <mxCell id="0hETNHY3sNTcF9YFYVwX-7" style="edgeStyle=orthogonalEdgeStyle;rounded=0;orthogonalLoop=1;jettySize=auto;html=1;" parent="urCsp88US3Rvxd7nxDVZ-52" source="PnuRqYjMk-wBqvXui7f1-24" target="PnuRqYjMk-wBqvXui7f1-25" edge="1">
                    <mxGeometry relative="1" as="geometry"/>
                </mxCell>
                <mxCell id="0hETNHY3sNTcF9YFYVwX-54" style="rounded=0;orthogonalLoop=1;jettySize=auto;html=1;exitX=0.414;exitY=-0.005;exitDx=0;exitDy=0;exitPerimeter=0;edgeStyle=orthogonalEdgeStyle;" parent="urCsp88US3Rvxd7nxDVZ-52" source="PnuRqYjMk-wBqvXui7f1-24" edge="1">
                    <mxGeometry relative="1" as="geometry">
                        <mxPoint x="80" y="1370" as="targetPoint"/>
                        <Array as="points">
                            <mxPoint x="205" y="1520"/>
                            <mxPoint x="81" y="1520"/>
                            <mxPoint x="81" y="1370"/>
                        </Array>
                    </mxGeometry>
                </mxCell>
                <mxCell id="PnuRqYjMk-wBqvXui7f1-24" value="Launchpad" style="shape=image;verticalLabelPosition=bottom;labelBackgroundColor=none;verticalAlign=top;aspect=fixed;imageAspect=0;image=data:image/svg+xml,PHN2ZyB4bWxucz0iaHR0cDovL3d3dy53My5vcmcvMjAwMC9zdmciIHZpZXdCb3g9IjAgMCAyNTYgMjU2IiBoZWlnaHQ9IjI1NiIgd2lkdGg9IjI1NiIgaWQ9ImxhdW5jaHBhZCI+JiN4YTsgIDxnIGlkPSJleHBvcnQiPiYjeGE7ICAgIDxwYXRoIHN0eWxlPSJmaWxsOiAjMDAwOyBzdHJva2Utd2lkdGg6IDBweDsiIGQ9Ik0xODQuMDEsNDRjLTE1LjQ0LDAtMjgsMTIuNTYtMjgsMjhzMTIuNTYsMjgsMjgsMjgsMjgtMTIuNTYsMjgtMjgtMTIuNTYtMjgtMjgtMjhaTTE4NC4wMSw4NGMtNi42MiwwLTEyLTUuMzgtMTItMTJzNS4zOC0xMiwxMi0xMiwxMiw1LjM4LDEyLDEyLTUuMzgsMTItMTIsMTJaIi8+JiN4YTsgICAgPHBhdGggc3R5bGU9ImZpbGw6ICMwMDA7IHN0cm9rZS13aWR0aDogMHB4OyIgZD0iTTI1NS45OSwxNS43MkMyNTUuODQsNi45NywyNDguNjItLjA2LDIzOS44MywwYy0yMi4yNy4yLTc3Ljg4LDQuNDYtMTEzLjA1LDM5LjY0LTcuOCw3LjgtMTQuNzcsMTYtMjAuODMsMjQuMzZoLTYxLjk0Yy0yLjg5LDAtNS41NiwxLjU2LTYuOTcsNC4wOEwxLjA0LDEzMi4wOHMtLjAxLjAzLS4wMi4wNGMtLjEuMTgtLjE5LjM2LS4yOC41NS0uMDMuMDYtLjA2LjExLS4wOC4xNy0uMDcuMTctLjE0LjM1LS4yLjUzLS4wMy4wNy0uMDYuMTUtLjA4LjIyLS4wNC4xMy0uMDcuMjYtLjExLjM5LS4wMy4xMy0uMDcuMjUtLjEuMzgtLjAyLjA4LS4wMy4xNi0uMDQuMjQtLjAzLjE4LS4wNi4zNy0uMDguNTUsMCwuMDYsMCwuMTMtLjAxLjE5LS4wMi4yLS4wMy40LS4wMy42MSwwLC4wMSwwLC4wMywwLC4wNCwwLC4wNywwLC4xNC4wMS4yMSwwLC4xNy4wMS4zNS4wMy41Mi4wMS4xMi4wMy4yNS4wNS4zNy4wMi4xMy4wMy4yNi4wNi4zOS4wMy4xNS4wNi4yOS4xLjQ0LjAzLjEuMDUuMjEuMDguMzEuMDQuMTUuMS4zLjE1LjQ1LjAzLjEuMDcuMTkuMTEuMjkuMDYuMTQuMTIuMjcuMTguNDEuMDUuMS4wOS4yLjE1LjMuMDYuMTIuMTMuMjMuMi4zNS4wNy4xMS4xMy4yMi4yLjMzLjA2LjEuMTMuMTkuMi4yOS4wOS4xMi4xNy4yNC4yNi4zNS4wNy4wOC4xNC4xNi4yLjI0LjEuMTIuMi4yMy4zMS4zNC4wOC4wOC4xNi4xNS4yNC4yMy4xMS4xLjIxLjIuMzMuMy4xLjA5LjIxLjE3LjMyLjI1LjEuMDcuMTkuMTUuMjkuMjIuMTUuMS4zLjE5LjQ1LjI4LjA2LjA0LjExLjA4LjE3LjExLjAxLDAsLjAyLDAsLjAzLjAyLjI4LjE2LjU3LjMuODcuNDIuMDYuMDIuMTIuMDQuMTguMDYuMjMuMDkuNDYuMTYuNy4yMy4xLjAzLjIuMDUuMy4wOC4yLjA1LjQxLjA5LjYyLjEyLjExLjAyLjIxLjA0LjMyLjA1LjI1LjAzLjUuMDQuNzUuMDUuMDUsMCwuMSwwLC4xNSwwLDAsMCwuMDEsMCwuMDIsMGg1Ni4xMWM3LjQsMCwxNC40MSwxLjY5LDIwLjY4LDQuNy4wOC4wNC4xNi4wOC4yNC4xMi42Mi4zLDEuMjQuNjIsMS44NS45NS4wNC4wMi4wOC4wNS4xMi4wNywxNC44OCw4LjEzLDI0Ljk5LDIzLjkyLDI0Ljk5LDQyLjA0djU2LjEzczAsLjAzLDAsLjA0YzAsLjIuMDEuNDEuMDMuNjEsMCwuMDYsMCwuMTMuMDEuMTkuMDIuMTkuMDUuMzcuMDguNTUuMDEuMDguMDIuMTYuMDQuMjQuMDMuMTMuMDcuMjYuMS4zOS4wMy4xMy4wNi4yNi4xLjM5LjAyLjA4LjA2LjE1LjA5LjIzLjA2LjE4LjEyLjM1LjIuNTIuMDMuMDYuMDYuMTIuMDkuMTguMDguMTguMTcuMzYuMjcuNTQsMCwuMDEuMDEuMDMuMDIuMDQuMDIuMDMuMDQuMDYuMDYuMDkuMTQuMjQuMy40OC40Ni43MS4wNS4wOC4xMS4xNS4xNy4yMi4xOC4yMy4zNy40NS41Ny42NS4wNS4wNS4wOS4wOS4xNC4xNC4yLjE5LjQuMzcuNjEuNTQuMDguMDcuMTcuMTMuMjUuMTkuMTkuMTQuMzguMjcuNTguMzkuMDcuMDQuMTQuMDkuMjEuMTMuMjguMTYuNTYuMy44Ni40Mi4wMiwwLC4wNS4wMi4wNy4wMy4yNy4xMS41NS4yLjgzLjI4LjA4LjAyLjE1LjA0LjIzLjA2LjI0LjA2LjQ3LjExLjcyLjE0LjA5LjAxLjE3LjAzLjI2LjA0LjI5LjAzLjU4LjA2Ljg4LjA2LjAyLDAsLjA1LDAsLjA3LDAsLjA1LDAsLjEsMCwuMTUsMCwuMjUsMCwuNTEtLjAyLjc1LS4wNS4xMS0uMDEuMjEtLjAzLjMyLS4wNS4yMS0uMDMuNDEtLjA3LjYyLS4xMi4xLS4wMi4yLS4wNS4zLS4wOC4yNC0uMDcuNDctLjE0LjctLjIzLjA2LS4wMi4xMi0uMDQuMTgtLjA3LjMtLjEyLjU5LS4yNi44Ny0uNDIuMDEsMCwuMDItLjAxLjAzLS4wMmw2NC0zNmMyLjUyLTEuNDIsNC4wOC00LjA4LDQuMDgtNi45N3YtNTguOTVjOC45NC02LjM0LDE3LjczLTEzLjc0LDI2LjA4LTIyLjEsMzUuMzMtMzUuMzMsMzguMjctOTIuMzYsMzcuODktMTE1LjIzWk03OS4zMiwxMjkuODRjLTQuODctMS4xOS05Ljk1LTEuODQtMTUuMTctMS44NEgyMS42OWwyNy00OGg0Ni45Yy05Ljg1LDE3LjI0LTE1LjU4LDM0LjUxLTE2LjI4LDQ5Ljg0Wk0xMjguMDEsMjM0LjMydi00Mi40NWMwLTQuNTktLjUtOS4wNi0xLjQyLTEzLjM4LDE1LjE1LS4zOSwzMi4yNi01Ljc5LDQ5LjQyLTE1LjM0djQ0LjE3cy00OCwyNy00OCwyN1pNMTIwLjc5LDE2Mi4zN2MtNS43NS0xMS4wNC0xNC42LTIwLjE1LTI1LjQ3LTI2LjI0LTEuNjYtMjMuODksMTUuMDctNTcuNDgsNDIuNzctODUuMTgsMzEtMzEsODEuNTgtMzQuNzcsMTAxLjg5LTM0Ljk4aDBjLjM0LDIwLjg1LTIuMjEsNzIuNjYtMzMuMjEsMTAzLjY2LTI4LjE2LDI4LjE2LTYyLjA2LDQ0Ljg1LTg1Ljk5LDQyLjczWiIvPiYjeGE7ICAgIDxwYXRoIHN0eWxlPSJmaWxsOiAjMDAwOyBzdHJva2Utd2lkdGg6IDBweDsiIGQ9Ik01MS4wNywxNjIuOTNjLTExLjg3LDEuOTUtMjMuNjgsOC4zMS0zMy4yOCwxNy45QzIuNzMsMTk1Ljg5LTEuNDgsMjI3LjcxLjM5LDI0MS4zYzEuMDEsNy4yOSw3LjAzLDEzLjMyLDE0LjMzLDE0LjMzLDEuNjUuMjMsMy42My4zNSw1Ljg0LjM1LDE0LjgzLDAsNDAuNTMtNS4zLDUzLjgtMTguNTcsOS41OS05LjU5LDE1Ljk1LTIxLjQxLDE3LjktMzMuMjgsMi4xMS0xMi44NC0xLjA5LTI0LjI3LTktMzIuMTktNy45Mi03LjkyLTE5LjM1LTExLjExLTMyLjE5LTlaTTc2LjQ4LDIwMS41M2MtMS40MSw4LjU5LTYuMTgsMTcuMzEtMTMuNDIsMjQuNTYtMTAuMzYsMTAuMzUtMzYuMTMsMTUuMDctNDYuMTUsMTMuNjktLjIzLS4wNC0uNjItLjQ0LS42Ni0uNjYtMS40Mi0xMC4yOSwyLjQ5LTM2LjU5LDEyLjg3LTQ2Ljk3LDcuMjUtNy4yNSwxNS45Ny0xMi4wMSwyNC41Ni0xMy40MiwxLjY5LS4yOCwzLjMxLS40MSw0Ljg4LS40MSw1LjUsMCwxMC4xNSwxLjY5LDEzLjQsNC45NCw0LjE3LDQuMTcsNS43OCwxMC42Niw0LjUzLDE4LjI4WiIvPiYjeGE7ICA8L2c+JiN4YTs8L3N2Zz4=;fontStyle=1" parent="urCsp88US3Rvxd7nxDVZ-52" vertex="1">
                    <mxGeometry x="175.72" y="1675.3200000000002" width="70" height="70" as="geometry"/>
                </mxCell>
                <mxCell id="0hETNHY3sNTcF9YFYVwX-126" style="rounded=0;orthogonalLoop=1;jettySize=auto;html=1;edgeStyle=orthogonalEdgeStyle;" parent="urCsp88US3Rvxd7nxDVZ-52" source="PnuRqYjMk-wBqvXui7f1-25" edge="1">
                    <mxGeometry relative="1" as="geometry">
                        <mxPoint x="-10" y="1370" as="targetPoint"/>
                        <Array as="points">
                            <mxPoint x="461" y="1520"/>
                            <mxPoint x="-9" y="1520"/>
                            <mxPoint x="-9" y="1370"/>
                        </Array>
                    </mxGeometry>
                </mxCell>
                <mxCell id="PnuRqYjMk-wBqvXui7f1-25" value="Mobile Client" style="shape=image;verticalLabelPosition=bottom;labelBackgroundColor=none;verticalAlign=top;aspect=fixed;imageAspect=0;image=data:image/svg+xml,PHN2ZyB4bWxucz0iaHR0cDovL3d3dy53My5vcmcvMjAwMC9zdmciIHZpZXdCb3g9IjAgMCAyNTYgMjU2IiBoZWlnaHQ9IjI1NiIgd2lkdGg9IjI1NiIgaWQ9Im1vYmlsZS1jbGllbnQiPiYjeGE7ICA8ZyBpZD0iZXhwb3J0Ij4mI3hhOyAgICA8cGF0aCBzdHlsZT0iZmlsbDogIzAwMDsgc3Ryb2tlLXdpZHRoOiAwcHg7IiBkPSJNMTM2LDIwOGgtMTZjLTQuNDIsMC04LDMuNTgtOCw4czMuNTgsOCw4LDhoMTZjNC40MiwwLDgtMy41OCw4LThzLTMuNTgtOC04LThaIi8+JiN4YTsgICAgPHBhdGggc3R5bGU9ImZpbGw6ICMwMDA7IHN0cm9rZS13aWR0aDogMHB4OyIgZD0iTTIwMCwwSDU2Yy0xMy4yMywwLTI0LDEwLjc3LTI0LDI0djIwOGMwLDEzLjIzLDEwLjc3LDI0LDI0LDI0aDE0NGMxMy4yMywwLDI0LTEwLjc3LDI0LTI0VjI0YzAtMTMuMjMtMTAuNzctMjQtMjQtMjRaTTIwOCwyMzJjMCw0LjQxLTMuNTksOC04LDhINTZjLTQuNDEsMC04LTMuNTktOC04VjI0YzAtNC40MSwzLjU5LTgsOC04aDE0NGM0LjQxLDAsOCwzLjU5LDgsOHYyMDhaIi8+JiN4YTsgICAgPHBhdGggc3R5bGU9ImZpbGw6ICMwMDA7IHN0cm9rZS13aWR0aDogMHB4OyIgZD0iTTE1Niw0OGgtNTZjLTExLjAzLDAtMjAsOC45Ny0yMCwyMHY4OGMwLDExLjAzLDguOTcsMjAsMjAsMjBoNTZjMTEuMDMsMCwyMC04Ljk3LDIwLTIwdi04OGMwLTExLjAzLTguOTctMjAtMjAtMjBaTTE2MCwxNTZjMCwyLjIxLTEuNzksNC00LDRoLTU2Yy0yLjIxLDAtNC0xLjc5LTQtNHYtODhjMC0yLjIxLDEuNzktNCw0LTRoNTZjMi4yMSwwLDQsMS43OSw0LDR2ODhaIi8+JiN4YTsgIDwvZz4mI3hhOzwvc3ZnPg==;fontStyle=1" parent="urCsp88US3Rvxd7nxDVZ-52" vertex="1">
                    <mxGeometry x="425.7199999999999" y="1675.3200000000002" width="70" height="70" as="geometry"/>
                </mxCell>
                <mxCell id="0hETNHY3sNTcF9YFYVwX-6" style="edgeStyle=orthogonalEdgeStyle;rounded=0;orthogonalLoop=1;jettySize=auto;html=1;" parent="urCsp88US3Rvxd7nxDVZ-52" source="PnuRqYjMk-wBqvXui7f1-27" edge="1">
                    <mxGeometry relative="1" as="geometry">
                        <mxPoint x="69" y="2200" as="targetPoint"/>
                    </mxGeometry>
                </mxCell>
                <mxCell id="PnuRqYjMk-wBqvXui7f1-27" value="App Designer" style="shape=image;verticalLabelPosition=bottom;labelBackgroundColor=none;verticalAlign=top;aspect=fixed;imageAspect=0;image=data:image/svg+xml,PHN2ZyB4bWxucz0iaHR0cDovL3d3dy53My5vcmcvMjAwMC9zdmciIHZpZXdCb3g9IjAgMCAyNTYgMjU2IiBoZWlnaHQ9IjI1NiIgd2lkdGg9IjI1NiIgaWQ9ImFwcC1kZXNpZ25lciI+JiN4YTsgIDxwYXRoIHN0eWxlPSJmaWxsOiAjMDAwOyBzdHJva2Utd2lkdGg6IDBweDsiIGQ9Ik0yMzcuNTEsMTEyLjY0Yy00LjItMTkuNjUtMTMuNjctMzguMDUtMjcuNDUtNTIuODgtMTEuMzMtMTIuMTktMjUuMjYtMjEuNjUtNDAuNTUtMjcuNzdoMzkuODhjMy4zLDkuMzEsMTIuMTksMTYsMjIuNjIsMTYsMTMuMjMsMCwyNC0xMC43NywyNC0yNFMyNDUuMjMsMCwyMzIsMGMtMTAuNDMsMC0xOS4zMiw2LjY5LTIyLjYyLDE2aC01OC43NWMtMy4zLTkuMzEtMTIuMTktMTYtMjIuNjItMTZzLTE5LjQsNi43NS0yMi42NiwxNi4xMmMtLjQ0LS4wNy0uODgtLjEyLTEuMzQtLjEyaC01Ny4zOEM0My4zMiw2LjY5LDM0LjQzLDAsMjQsMCwxMC43NywwLDAsMTAuNzcsMCwyNHMxMC43NywyNCwyNCwyNGMxMC40MywwLDE5LjMyLTYuNjksMjIuNjItMTZoNDAuMTFjLTE1LjI2LDYuMTItMjkuMiwxNS41Ny00MC41NiwyNy43NC0xMy44OCwxNC44Ni0yMy40MSwzMy4yNS0yNy42NSw1Mi45LTEwLjYsMi40OS0xOC41MiwxMi4wMS0xOC41MiwyMy4zNiwwLDEzLjIzLDEwLjc3LDI0LDI0LDI0czI0LTEwLjc3LDI0LTI0YzAtOS40Ny01LjUxLTE3LjY3LTEzLjQ5LTIxLjU3LDguNjYtMzYuODQsMzkuMDktNjYuMyw3Ny4wNC03Mi45NywzLjA5LDIuOTIsNi45NSw1LjAyLDExLjI1LDUuOTdsLTIuMjMsNS42MmMtOS4zLDIzLjQtMjEuMTMsNDUuNzYtMzUuMTksNjYuNDYtOC4zMSwxMi4yNS0xNy41MiwyNC4wOC0yNy4zNiwzNS4xOGwtNC40LDQuOTYsNC4wNSw1LjI0YzYuMTYsNy45OCwxMS4xOCwxNi43NSwxNC45LDI2LjA4LDMuMDUsNy42NCw1LjIzLDE1LjY2LDYuNDgsMjMuODJsLjE1LDEuMDEuNC45NGMxLjg5LDQuNDIsNi4yMiw3LjI3LDExLjAzLDcuMjdoNzQuNzJjMi4zNSwwLDQuNjQtLjY4LDYuNjEtMS45OCwxLjk2LTEuMywzLjQ5LTMuMTIsNC40Mi01LjI5bC40LS45NC4xNS0xLjAxYzEuMjUtOC4xNiwzLjQzLTE2LjE3LDYuNDgtMjMuODIsMy43Mi05LjMzLDguNzQtMTguMSwxNC45LTI2LjA4bDQuMDUtNS4yNC00LjQtNC45NmMtOS44NS0xMS4xLTE5LjA1LTIyLjkzLTI3LjM2LTM1LjE4LTE0LjA1LTIwLjcxLTI1Ljg5LTQzLjA3LTM1LjE5LTY2LjQ2bC0yLjIzLTUuNjJjNC4zLS45NSw4LjE3LTMuMDcsMTEuMjctNS45OSwzOC42Myw2LjY1LDY4LjU5LDM1LjU4LDc3LjA5LDcyLjk2LTguMDIsMy44OS0xMy41NiwxMi4xMS0xMy41NiwyMS42MSwwLDEzLjIzLDEwLjc3LDI0LDI0LDI0czI0LTEwLjc3LDI0LTI0YzAtMTEuMzQtNy45MS0yMC44Ni0xOC40OS0yMy4zNlpNMjQsMTQ0Yy00LjQxLDAtOC0zLjU5LTgtOHMzLjU5LTgsOC04LDgsMy41OSw4LDgtMy41OSw4LTgsOFpNMjMyLDE2YzQuNDEsMCw4LDMuNTksOCw4cy0zLjU5LDgtOCw4LTgtMy41OS04LTgsMy41OS04LDgtOFpNMjQsMzJjLTQuNDEsMC04LTMuNTktOC04czMuNTktOCw4LTgsOCwzLjU5LDgsOC0zLjU5LDgtOCw4Wk0xODEuNzcsMTYwLjQ0Yy01LjMxLDcuNjgtOS43NCwxNS45My0xMy4yLDI0LjU5LTIuOTYsNy40MS01LjIsMTUuMTEtNi42OSwyMi45N2gtNjcuNzZjLTEuNDktNy44Ni0zLjczLTE1LjU2LTYuNjktMjIuOTctMy40Ni04LjY2LTcuODktMTYuOTEtMTMuMi0yNC41OSw4LjcxLTEwLjE4LDE2LjktMjAuOSwyNC4zOS0zMS45NSw3LjgtMTEuNSwxNC45My0yMy40OSwyMS4zOC0zNS44NnY3NS4zN2MwLDQuNDIsMy41OCw4LDgsOHM4LTMuNTgsOC04di03NS4zN2M2LjQ1LDEyLjM3LDEzLjU4LDI0LjM3LDIxLjM4LDM1Ljg2LDcuNDksMTEuMDQsMTUuNjgsMjEuNzYsMjQuMzksMzEuOTVaTTEyOCwzMmMtNC40MSwwLTgtMy41OS04LThzMy41OS04LDgtOCw4LDMuNTksOCw4LTMuNTksOC04LDhaTTIzMiwxNDRjLTQuNDEsMC04LTMuNTktOC04czMuNTktOCw4LTgsOCwzLjU5LDgsOC0zLjU5LDgtOCw4WiIvPiYjeGE7ICA8cGF0aCBzdHlsZT0iZmlsbDogIzAwMDsgc3Ryb2tlLXdpZHRoOiAwcHg7IiBkPSJNMTY4LDI0MGgtODBjLTQuNDIsMC04LDMuNTgtOCw4czMuNTgsOCw4LDhoODBjNC40MiwwLDgtMy41OCw4LThzLTMuNTgtOC04LThaIi8+JiN4YTs8L3N2Zz4=;fontStyle=1" parent="urCsp88US3Rvxd7nxDVZ-52" vertex="1">
                    <mxGeometry x="34" y="2290.75" width="70" height="70" as="geometry"/>
                </mxCell>
                <mxCell id="0hETNHY3sNTcF9YFYVwX-122" style="rounded=0;orthogonalLoop=1;jettySize=auto;html=1;exitX=0.5;exitY=0;exitDx=0;exitDy=0;edgeStyle=orthogonalEdgeStyle;" parent="urCsp88US3Rvxd7nxDVZ-52" source="PnuRqYjMk-wBqvXui7f1-35" edge="1">
                    <mxGeometry relative="1" as="geometry">
                        <mxPoint x="34" y="2400" as="targetPoint"/>
                        <Array as="points">
                            <mxPoint x="-95" y="2560"/>
                            <mxPoint x="35" y="2560"/>
                            <mxPoint x="35" y="2400"/>
                        </Array>
                    </mxGeometry>
                </mxCell>
                <mxCell id="PnuRqYjMk-wBqvXui7f1-35" value="API Designer" style="shape=image;verticalLabelPosition=bottom;labelBackgroundColor=none;verticalAlign=top;aspect=fixed;imageAspect=0;image=data:image/svg+xml,PHN2ZyB4bWxucz0iaHR0cDovL3d3dy53My5vcmcvMjAwMC9zdmciIHZpZXdCb3g9IjAgMCAyNTYgMjU2IiBoZWlnaHQ9IjI1NiIgd2lkdGg9IjI1NiIgaWQ9ImFwaS1kZXNpZ25lciI+JiN4YTsgIDxwYXRoIHN0eWxlPSJmaWxsOiAjMDAwOyBzdHJva2Utd2lkdGg6IDBweDsiIGQ9Ik0xNzAuNjIsMTE5LjE4Yy0xNC4wNS0yMC43MS0yNS44OS00My4wNy0zNS4xOS02Ni40NmwtNy40My0xOC43MS03LjQzLDE4LjcxYy05LjMsMjMuNC0yMS4xMyw0NS43Ni0zNS4xOSw2Ni40Ni04LjMxLDEyLjI1LTE3LjUyLDI0LjA4LTI3LjM2LDM1LjE4bC00LjQsNC45Niw0LjA1LDUuMjRjNi4xNiw3Ljk4LDExLjE4LDE2Ljc1LDE0LjksMjYuMDgsMy4wNSw3LjY0LDUuMjMsMTUuNjYsNi40OCwyMy44MmwuMTUsMS4wMS40Ljk0YzEuODksNC40Miw2LjIyLDcuMjcsMTEuMDMsNy4yN2g3NC43MmMyLjM1LDAsNC42NC0uNjgsNi42MS0xLjk4LDEuOTYtMS4yOSwzLjQ5LTMuMTIsNC40Mi01LjI5bC40LS45NC4xNS0xLjAxYzEuMjUtOC4xNiwzLjQzLTE2LjE3LDYuNDgtMjMuODIsMy43Mi05LjMyLDguNzQtMTguMSwxNC45LTI2LjA4bDQuMDUtNS4yNC00LjQtNC45NmMtOS44NS0xMS4xLTE5LjA1LTIyLjkzLTI3LjM2LTM1LjE4Wk0xNjguNTcsMTg0LjcxYy0yLjk2LDcuNDEtNS4yLDE1LjExLTYuNjksMjIuOTdoLTY3Ljc2Yy0xLjQ5LTcuODUtMy43My0xNS41Ni02LjY5LTIyLjk3LTMuNDYtOC42Ni03Ljg5LTE2LjkxLTEzLjItMjQuNTksOC43MS0xMC4xOCwxNi45LTIwLjkxLDI0LjM5LTMxLjk1LDcuOC0xMS41LDE0LjkzLTIzLjQ5LDIxLjM4LTM1Ljg2djc1LjM3YzAsNC40MiwzLjU4LDgsOCw4czgtMy41OCw4LTh2LTc1LjM3YzYuNDUsMTIuMzcsMTMuNTgsMjQuMzcsMjEuMzgsMzUuODYsNy40OSwxMS4wNCwxNS42OCwyMS43NiwyNC4zOSwzMS45NS01LjMxLDcuNjgtOS43NCwxNS45My0xMy4yLDI0LjU5WiIvPiYjeGE7ICA8cGF0aCBzdHlsZT0iZmlsbDogIzAwMDsgc3Ryb2tlLXdpZHRoOiAwcHg7IiBkPSJNMTY4LDIzOS42OGgtODBjLTQuNDIsMC04LDMuNTgtOCw4czMuNTgsOCw4LDhoODBjNC40MiwwLDgtMy41OCw4LThzLTMuNTgtOC04LThaIi8+JiN4YTsgIDxwYXRoIHN0eWxlPSJmaWxsOiAjMDAwOyBzdHJva2Utd2lkdGg6IDBweDsiIGQ9Ik04MC4zMSwyNy42MmwxMC4wNCwxMC4wNGMxLjU2LDEuNTYsMy42MSwyLjM0LDUuNjYsMi4zNHM0LjA5LS43OCw1LjY2LTIuMzRjMy4xMi0zLjEyLDMuMTItOC4xOSwwLTExLjMxTDc3LjY2LDIuMzRjLTMuMTItMy4xMi04LjE5LTMuMTItMTEuMzEsMGwtMjQsMjRjLTMuMTIsMy4xMi0zLjEyLDguMTksMCwxMS4zMSwxLjU2LDEuNTYsMy42MSwyLjM0LDUuNjYsMi4zNHM0LjA5LS43OCw1LjY2LTIuMzRsMTAuNjYtMTAuNjZjLS4yMywxNC41OS0zLjE5LDM1LjY2LTE1LjI4LDU3LjA3LTEzLjM3LDIzLjY4LTMxLjg0LDM3LjUzLTQ0Ljk4LDQ0Ljk3LTMuODQsMi4xOC01LjE5LDcuMDYtMy4wMiwxMC45LDEuNDcsMi42LDQuMTgsNC4wNiw2Ljk3LDQuMDYsMS4zNCwwLDIuNjktLjMzLDMuOTQtMS4wNCwxNC45LTguNDQsMzUuODUtMjQuMTUsNTEuMDItNTEuMDMsMTMuNi0yNC4wOSwxNy4wMy00Ny43OCwxNy4zNC02NC4zMVoiLz4mI3hhOyAgPHBhdGggc3R5bGU9ImZpbGw6ICMwMDA7IHN0cm9rZS13aWR0aDogMHB4OyIgZD0iTTI1MS45NCwxMjkuMDRjLTEzLjE0LTcuNDUtMzEuNjEtMjEuMjktNDQuOTgtNDQuOTctMTIuMDktMjEuNDEtMTUuMDYtNDIuNDgtMTUuMjgtNTcuMDdsMTAuNjYsMTAuNjZjMS41NiwxLjU2LDMuNjEsMi4zNCw1LjY2LDIuMzRzNC4wOS0uNzgsNS42Ni0yLjM0YzMuMTItMy4xMiwzLjEyLTguMTksMC0xMS4zMWwtMjQtMjRjLTMuMTItMy4xMi04LjE5LTMuMTItMTEuMzEsMGwtMjQsMjRjLTMuMTIsMy4xMi0zLjEyLDguMTksMCwxMS4zMSwxLjU2LDEuNTYsMy42MSwyLjM0LDUuNjYsMi4zNHM0LjA5LS43OCw1LjY2LTIuMzRsMTAuMDQtMTAuMDRjLjMxLDE2LjUzLDMuNzQsNDAuMjMsMTcuMzQsNjQuMzEsMTUuMTgsMjYuODgsMzYuMTIsNDIuNTgsNTEuMDIsNTEuMDMsMS4yNS43MSwyLjYsMS4wNCwzLjk0LDEuMDQsMi43OSwwLDUuNS0xLjQ2LDYuOTctNC4wNiwyLjE4LTMuODQuODMtOC43My0zLjAyLTEwLjlaIi8+JiN4YTs8L3N2Zz4=;fontStyle=1" parent="urCsp88US3Rvxd7nxDVZ-52" vertex="1">
                    <mxGeometry x="-130" y="2712" width="70" height="70" as="geometry"/>
                </mxCell>
                <mxCell id="PnuRqYjMk-wBqvXui7f1-43" value="Authentication" style="shape=image;verticalLabelPosition=bottom;labelBackgroundColor=none;verticalAlign=top;aspect=fixed;imageAspect=0;image=data:image/svg+xml,PHN2ZyB4bWxucz0iaHR0cDovL3d3dy53My5vcmcvMjAwMC9zdmciIHZpZXdCb3g9IjAgMCAyNTYgMjU2IiBoZWlnaHQ9IjI1NiIgd2lkdGg9IjI1NiIgaWQ9ImkxOG4iPiYjeGE7ICA8cGF0aCBzdHlsZT0iZmlsbDogIzAwMDsgc3Ryb2tlLXdpZHRoOiAwcHg7IiBkPSJNMjU2LDg3Ljk5di00Ny45OXMwLS4wNiwwLS4wOWMwLS4xNS0uMDEtLjMtLjAyLS40NSwwLS4xMi0uMDEtLjI0LS4wMy0uMzYtLjAyLS4xNS0uMDQtLjI5LS4wNy0uNDQtLjAyLS4xMi0uMDQtLjI0LS4wNi0uMzYtLjAzLS4xMy0uMDctLjI3LS4xLS40LS4wMy0uMTItLjA2LS4yNS0uMS0uMzctLjA0LS4xMi0uMDktLjI0LS4xMy0uMzUtLjA1LS4xMy0uMDktLjI1LS4xNS0uMzgtLjA1LS4xMS0uMS0uMjEtLjE1LS4zMi0uMDYtLjEzLS4xMi0uMjUtLjE5LS4zOC0uMDYtLjEtLjEyLS4yLS4xOC0uMy0uMDctLjEyLS4xNC0uMjQtLjIyLS4zNi0uMDctLjEtLjE0LS4xOS0uMjItLjI5LS4wOC0uMTEtLjE2LS4yMi0uMjUtLjMyLS4wOC0uMS0uMTctLjE5LS4yNi0uMjgtLjA5LS4wOS0uMTctLjE5LS4yNi0uMjgtLjEtLjA5LS4yLS4xOC0uMy0uMjctLjA5LS4wOC0uMTgtLjE2LS4yNy0uMjQtLjExLS4wOS0uMjItLjE3LS4zNC0uMjUtLjA5LS4wNy0uMTktLjE0LS4yOC0uMjEtLjEyLS4wOC0uMjQtLjE1LS4zNi0uMjItLjEtLjA2LS4yLS4xMi0uMzEtLjE4LS4xMi0uMDYtLjI0LS4xMi0uMzYtLjE4LS4xMS0uMDUtLjIzLS4xMS0uMzQtLjE2LS4xMi0uMDUtLjI0LS4wOS0uMzYtLjEzLS4xMy0uMDUtLjI2LS4wOS0uMzktLjEzLS4xMS0uMDMtLjIzLS4wNi0uMzUtLjA5LS4xNC0uMDQtLjI4LS4wNy0uNDMtLjEtLjEyLS4wMi0uMjQtLjA0LS4zNi0uMDUtLjE1LS4wMi0uMjktLjA0LS40NC0uMDYtLjAzLDAtLjA2LDAtLjA5LS4wMS0yNi42Ni0yLjEtNTIuOTUtNy4zNi03OC4xMy0xNS42Mi0xMy4yNy00LjM2LTI2LjQyLTkuNjEtMzkuMDYtMTUuNjIsMCwwLS4wMiwwLS4wMi0uMDEtLjE3LS4wOC0uMzUtLjE1LS41Mi0uMjItLjI2LS4xLS41Mi0uMTktLjc4LS4yNi0uMDUtLjAxLS4xMS0uMDQtLjE2LS4wNS0uMTgtLjA0LS4zNi0uMDgtLjUzLS4xMS0uMDgtLjAxLS4xNS0uMDMtLjIzLS4wNS0uMTYtLjAyLS4zMS0uMDMtLjQ3LS4wNS0uMSwwLS4yMS0uMDItLjMxLS4wMy0uMTMsMC0uMjUsMC0uMzgsMC0uMTQsMC0uMjcsMC0uNDEsMC0uMDksMC0uMTguMDItLjI4LjAzLS4xNy4wMS0uMzQuMDMtLjUxLjA1LS4wNiwwLS4xMi4wMi0uMTguMDMtLjIuMDMtLjM5LjA3LS41OS4xMiwwLDAsMCwwLDAsMC0uMzQuMDktLjY4LjItMS4wMS4zNC0uMTUuMDYtLjMuMTItLjQ1LjE5LDAsMC0uMDIsMC0uMDMuMDEtMTIuNjUsNi4wMS0yNS43OSwxMS4yNy0zOS4wNiwxNS42Mi0yNS4xOSw4LjI3LTUxLjQ3LDEzLjUyLTc4LjEzLDE1LjYyLS4wMywwLS4wNiwwLS4wOS4wMS0uMTUuMDEtLjI5LjA0LS40NC4wNi0uMTIuMDItLjI0LjAzLS4zNi4wNS0uMTUuMDMtLjI5LjA2LS40My4xLS4xMi4wMy0uMjMuMDYtLjM1LjA5LS4xMy4wNC0uMjYuMDktLjM5LjEzLS4xMi4wNC0uMjQuMDgtLjM2LjEzLS4xMi4wNS0uMjMuMS0uMzQuMTYtLjEyLjA2LS4yNS4xMS0uMzYuMTgtLjExLjA2LS4yMS4xMi0uMzEuMTgtLjEyLjA3LS4yNC4xNC0uMzYuMjItLjEuMDYtLjE5LjE0LS4yOC4yMS0uMTEuMDgtLjIzLjE2LS4zNC4yNS0uMDkuMDgtLjE4LjE2LS4yNy4yNC0uMS4wOS0uMi4xOC0uMy4yNy0uMDkuMDktLjE3LjE4LS4yNi4yOC0uMDkuMDktLjE4LjE5LS4yNi4yOC0uMDkuMS0uMTcuMjEtLjI1LjMyLS4wNy4xLS4xNS4xOS0uMjIuMjktLjA4LjEyLS4xNS4yNC0uMjIuMzYtLjA2LjEtLjEyLjItLjE4LjMtLjA3LjEyLS4xMy4yNS0uMTkuMzgtLjA1LjExLS4xMS4yMS0uMTUuMzItLjA1LjEyLS4xLjI1LS4xNS4zOC0uMDQuMTItLjA5LjIzLS4xMy4zNS0uMDQuMTItLjA3LjI1LS4xLjM3LS4wNC4xMy0uMDcuMjYtLjEuNC0uMDMuMTItLjA0LjI0LS4wNi4zNi0uMDIuMTQtLjA1LjI5LS4wNy40NC0uMDEuMTItLjAyLjI0LS4wMy4zNiwwLC4xNS0uMDIuMy0uMDIuNDUsMCwuMDMsMCwuMDYsMCwuMDl2NDcuOTlzMCwuMDYsMCwuMDh2MjMuOTJjMCwxOC40Miw5Ljc0LDU5LjY5LDQ2LjI0LDk3LjU1LDI2LjkzLDI3LjkzLDU4LjIyLDQwLjU0LDc5LjczLDQ2LjE5LjE1LjA0LjI5LjA2LjQ0LjA5LjE0LjAzLjI4LjA2LjQyLjA4LjM4LjA2Ljc2LjA5LDEuMTMuMDkuMDEsMCwuMDIsMCwuMDQsMCwwLDAsMCwwLDAsMHMwLDAsMCwwYy4wMSwwLC4wMiwwLC4wNCwwLC4zNywwLC43NS0uMDQsMS4xMy0uMDkuMTQtLjAyLjI4LS4wNS40Mi0uMDguMTUtLjAzLjI5LS4wNS40NC0uMDksMjEuNTEtNS42NSw1Mi44LTE4LjI1LDc5LjczLTQ2LjE5LDM2LjUtMzcuODYsNDYuMjQtNzkuMTQsNDYuMjQtOTcuNTV2LTIzLjkyczAtLjA2LDAtLjA4Wk0yNDAsNDcuMzF2MzUuMjljLTMzLjMsMTMuMjEtNjguMjIsMjAuMzctMTA0LDIxLjI5VjIwLjRjOS42Nyw0LjE4LDE5LjU1LDcuOTMsMjkuNSwxMS4yLDI0LjA3LDcuOSw0OS4wOSwxMy4xNyw3NC41LDE1LjcxWk05MC41LDMxLjZjOS45NS0zLjI3LDE5LjgzLTcuMDIsMjkuNS0xMS4ydjgzLjQ5Yy0zNS43OC0uOTMtNzAuNy04LjA5LTEwNC0yMS4yOXYtMzUuMjljMjUuNC0yLjU0LDUwLjQzLTcuODEsNzQuNS0xNS43MVpNNTcuNzYsMTk4LjQ1QzI0LjczLDE2NC4xOCwxNiwxMjYuOTIsMTYsMTEydi0xMi4yNmMzMy40MSwxMi41LDY4LjMsMTkuMjksMTA0LDIwLjE2djExNy4zN2MtMTguNS02LjE3LTQxLjc5LTE3LjYxLTYyLjI0LTM4LjgzWk0xOTguMjQsMTk4LjQ1Yy0yMC40NSwyMS4yMS00My43NCwzMi42Ni02Mi4yNCwzOC44M3YtMTE3LjM3YzM1LjctLjg4LDcwLjYtNy42NiwxMDQtMjAuMTZ2MTIuMjZjMCwxNC45Mi04LjczLDUyLjE4LTQxLjc2LDg2LjQ1WiIvPiYjeGE7PC9zdmc+;fontStyle=1" parent="urCsp88US3Rvxd7nxDVZ-52" vertex="1">
                    <mxGeometry x="-550" y="2131.75" width="70" height="70" as="geometry"/>
                </mxCell>
                <mxCell id="PnuRqYjMk-wBqvXui7f1-47" value="Mobile" style="shape=image;verticalLabelPosition=bottom;labelBackgroundColor=default;verticalAlign=top;aspect=fixed;imageAspect=0;image=data:image/svg+xml,PHN2ZyB4bWxucz0iaHR0cDovL3d3dy53My5vcmcvMjAwMC9zdmciIHZpZXdCb3g9IjAgMCAyNTYgMjU2IiBoZWlnaHQ9IjI1NiIgd2lkdGg9IjI1NiIgaWQ9Im1vYmlsZS1kZXZpY2VzIj4mI3hhOyAgPGcgaWQ9IkV4cG9ydCI+JiN4YTsgICAgPHBhdGggc3R5bGU9ImZpbGw6ICMwMDA7IHN0cm9rZS13aWR0aDogMHB4OyIgZD0iTTEyMCwyMDhoLTMyYy00LjQyLDAtOCwzLjU4LTgsOHMzLjU4LDgsOCw4aDMyYzQuNDIsMCw4LTMuNTgsOC04cy0zLjU4LTgtOC04WiIvPiYjeGE7ICAgIDxwYXRoIHN0eWxlPSJmaWxsOiAjMDAwOyBzdHJva2Utd2lkdGg6IDBweDsiIGQ9Ik0xODQsNDhIMjRjLTEzLjIzLDAtMjQsMTAuNzctMjQsMjR2MTYwYzAsMTMuMjMsMTAuNzcsMjQsMjQsMjRoMTYwYzEzLjIzLDAsMjQtMTAuNzcsMjQtMjRWNzJjMC0xMy4yMy0xMC43Ny0yNC0yNC0yNFpNMTkyLDIzMmMwLDQuNDEtMy41OSw4LTgsOEgyNGMtNC40MSwwLTgtMy41OS04LThWNzJjMC00LjQxLDMuNTktOCw4LThoMTYwYzQuNDEsMCw4LDMuNTksOCw4djE2MFoiLz4mI3hhOyAgICA8cGF0aCBzdHlsZT0iZmlsbDogIzAwMDsgc3Ryb2tlLXdpZHRoOiAwcHg7IiBkPSJNMjMwLjU1LDBINzMuNDVjLTE0LjA0LDAtMjUuNDUsMTAuMjEtMjUuNDUsMjIuNzcsMCw0LjQyLDMuNTgsOCw4LDhzOC0zLjU4LDgtOGMwLTMuNjcsNC4zMy02Ljc3LDkuNDUtNi43N2gxNTcuMDljNS4xMiwwLDkuNDUsMy4xLDkuNDUsNi43N3YxNjIuNDZjMCwzLjY3LTQuMzMsNi43Ny05LjQ1LDYuNzctNC40MiwwLTgsMy41OC04LDhzMy41OCw4LDgsOGMxNC4wNCwwLDI1LjQ1LTEwLjIxLDI1LjQ1LTIyLjc3VjIyLjc3YzAtMTIuNTUtMTEuNDItMjIuNzctMjUuNDUtMjIuNzdaIi8+JiN4YTsgICAgPHBhdGggc3R5bGU9ImZpbGw6ICMwMDA7IHN0cm9rZS13aWR0aDogMHB4OyIgZD0iTTE0NCw4MGgtODBjLTguODIsMC0xNiw3LjE4LTE2LDE2djgwYzAsOC44Miw3LjE4LDE2LDE2LDE2aDgwYzguODIsMCwxNi03LjE4LDE2LTE2di04MGMwLTguODItNy4xOC0xNi0xNi0xNlpNMTQ0LDE3NmgtODB2LTgwaDgwdjgwczAsMCwwLDBaIi8+JiN4YTsgIDwvZz4mI3hhOzwvc3ZnPg==;fontStyle=1" parent="urCsp88US3Rvxd7nxDVZ-52" vertex="1">
                    <mxGeometry x="50" y="1275.76" width="70" height="70" as="geometry"/>
                </mxCell>
                <mxCell id="PnuRqYjMk-wBqvXui7f1-75" value="Offline" style="shape=image;verticalLabelPosition=bottom;labelBackgroundColor=default;verticalAlign=top;aspect=fixed;imageAspect=0;image=data:image/svg+xml,PHN2ZyB4bWxucz0iaHR0cDovL3d3dy53My5vcmcvMjAwMC9zdmciIHZpZXdCb3g9IjAgMCAyNTYgMjU2IiBkYXRhLW5hbWU9IkxheWVyIDEiIGlkPSJMYXllcl8xIj48ZGVmcz48c3R5bGU+LmNscy0xe2ZpbGw6IzAwMDt9LmNscy0ye2ZpbGw6IzAwMDt9PC9zdHlsZT48L2RlZnM+PHBhdGggZD0iTTc3LjU4LDY3LjY5QTIxLjI3LDIxLjI3LDAsMSwxLDU2LjMxLDg5LDIxLjE1LDIxLjE1LDAsMCwxLDc3LjU4LDY3LjY5Wk05MS45Miw4OUExNC4zNywxNC4zNywwLDEsMCw3Ny41LDEwMy4zOSwxNC4zMSwxNC4zMSwwLDAsMCw5MS45Miw4OVoiIGNsYXNzPSJjbHMtMSIvPjxwYXRoIGQ9Ik0xMzEsMTA4LjdjLTEzLjQ3LS4yNy0yNS4xNSw0LjQzLTM1LjQ0LDEzLTIuNDcsMi4wNi00LjczLDQuMzEtNyw2LjU0YTQuMjMsNC4yMywwLDAsMS0yLjE3LDEuMzUsMy40OSwzLjQ5LDAsMCwxLTMuNzMtMS42OSwzLjc3LDMuNzcsMCwwLDEsMS00LjM5YzEuMjctMS4yNSwyLjU3LTIuNDcsMy44Ni0zLjY5YTY0Ljc5LDY0Ljc5LDAsMCwxLDI1LjYyLTE1LjQyLDYxLjM2LDYxLjM2LDAsMCwxLDIyLjQ4LTIuNDgsNTkuODcsNTkuODcsMCwwLDEsMjkuMjUsOS45MSw4Ny45NCw4Ny45NCwwLDAsMSwxNC4wOCwxMiwzLjM4LDMuMzgsMCwxLDEtNC43Nyw0Ljc3LDEwNi45LDEwNi45LDAsMCwwLTkuNTktOC41OSw1Mi4zMSw1Mi4zMSwwLDAsMC0yNS40MS0xMC44N0E1Ni4wNyw1Ni4wNywwLDAsMCwxMzEsMTA4LjdaIiBjbGFzcz0iY2xzLTIiLz48cGF0aCBkPSJNMTMxLjI4LDc5LjM2QTgyLjQ5LDgyLjQ5LDAsMCwwLDExMS4xNiw4MmMtLjc1LjItMS41MS4zOC0yLjI3LjUyYTMuMTksMy4xOSwwLDAsMS0zLjktMi4zNSwzLjI2LDMuMjYsMCwwLDEsMi00QTQxLjgzLDQxLjgzLDAsMCwxLDExNSw3NGE4My4xOSw4My4xOSwwLDAsMSwxNS4yNC0xLjU1YzE4LjIsMCwzNS4zMiw0LDUwLjc2LDE0YTEwNi40NywxMDYuNDcsMCwwLDEsMTcuNTQsMTQuNjQsMy40NCwzLjQ0LDAsMCwxLC4xLDUuMTFjLTEuNDgsMS40LTMuNDYsMS4xNS01LjA2LS41LTEyLjY5LTEzLjE4LTI3LjctMjIuMDgtNDYtMjUuMDZBMTA4LDEwOCwwLDAsMCwxMzEuMjgsNzkuMzZaIiBjbGFzcz0iY2xzLTIiLz48cGF0aCBkPSJNMTMwLjUsMTMxLjA1YTM5LjA2LDM5LjA2LDAsMCwxLDIxLjg5LDYuNzEsNTMuNTEsNTMuNTEsMCwwLDEsOC4zNSw2Ljg4YzEuNDIsMS40MiwxLjc0LDMuMjEuODcsNC41Ny0xLjI2LDEuOTQtMy41OCwyLjE5LTUuNDQuNS0xLjM1LTEuMjMtMi42MS0yLjU2LTQuMDYtMy42OGEzOC44NCwzOC44NCwwLDAsMC0xMS02LjM0Yy05LjE0LTMuMTUtMTcuODEtMi0yNiwyLjkzYTM0LjcsMzQuNywwLDAsMC04LjMsNi40Nyw2LjIyLDYuMjIsMCwwLDEtMS42LDEuMjgsMy40NywzLjQ3LDAsMCwxLTQuMjUtLjcxLDMuMjIsMy4yMiwwLDAsMSwwLTQuMjgsMzYuMjMsMzYuMjMsMCwwLDEsNi4xNS01LjY1LDQwLjc3LDQwLjc3LDAsMCwxLDE4LjYtOC4yNEEyNy41MiwyNy41MiwwLDAsMSwxMzAuNSwxMzEuMDVaIiBjbGFzcz0iY2xzLTIiLz48cGF0aCBkPSJNMTQ0LjE5LDE3NS4xMWMuMzgsNi43Ni01LjU2LDEzLjE4LTEzLjA3LDEzLjJhMTMuMiwxMy4yLDAsMCwxLC4wOS0yNi4zOUMxMzkuMzMsMTYyLjA2LDE0NC43MSwxNjkuMjUsMTQ0LjE5LDE3NS4xMVptLTEyLjkzLTYuMjhhNi4zMyw2LjMzLDAsMSwwLDYuMTYsNi4zNkE2LjI3LDYuMjcsMCwwLDAsMTMxLjI2LDE2OC44M1oiIGNsYXNzPSJjbHMtMiIvPjxwYXRoIGQ9Ik03Mi42Miw4MC42YTMuNjEsMy42MSwwLDAsMSwyLjU1LDEuMTVjLjgxLjcyLDEuNDIsMi4xLDIuNCwyLjA2czEuNi0xLjM2LDIuNC0yLjFhMy40MywzLjQzLDAsMCwxLDMuMjUtMUEzLjM0LDMuMzQsMCwwLDEsODUuMTUsODZhMTIuMjUsMTIuMjUsMCwwLDEtMS4zLDEuNGMtMS43MiwxLjc5LTEuNywxLjI4LDAsMy4xLjM4LjQuNzkuNzgsMS4xMiwxLjJhMy4zMywzLjMzLDAsMCwxLS4yNSw0LjU4LDMuMjYsMy4yNiwwLDAsMS00LjU3LDAsMTIuMTgsMTIuMTgsMCwwLDEtMS42NS0xLjY0Yy0uNzQtMS0xLjMyLS44Mi0yLDBhMTQuMiwxNC4yLDAsMCwxLTEuNjUsMS42NCwzLjI2LDMuMjYsMCwwLDEtNC41OC0uMTFBMy4yOSwzLjI5LDAsMCwxLDcwLDkxLjc2YTE5LjUyLDE5LjUyLDAsMCwxLDItMi4wOGMuNjMtLjU4LjU3LTEsMC0xLjU2YTIyLDIyLDAsMCwxLTEuOTItMS45NCwzLjQxLDMuNDEsMCwwLDEsMi41NS01LjU4WiIgY2xhc3M9ImNscy0xIi8+PC9zdmc+;fontStyle=1;clipPath=inset(17.67% 18% 21% 20.67%);" parent="urCsp88US3Rvxd7nxDVZ-52" vertex="1">
                    <mxGeometry x="342.22" y="1203.26" width="70" height="70" as="geometry"/>
                </mxCell>
                <mxCell id="PnuRqYjMk-wBqvXui7f1-78" value="" style="shape=image;verticalLabelPosition=bottom;labelBackgroundColor=default;verticalAlign=top;aspect=fixed;imageAspect=0;image=data:image/svg+xml,PHN2ZyB4bWxucz0iaHR0cDovL3d3dy53My5vcmcvMjAwMC9zdmciIHZpZXdCb3g9IjAgMCAzMiAzMiI+PHBhdGggZD0iTTI0LjYgMjAuNmMtLjEuMi0uMS4zLS4xLjQtLjQgMS4xLTEgMi4xLTEuNyAzLS4zLjQtLjcuOC0xLjEgMS4xLS4zLjItLjUuNC0uOC42LS4yLjEtLjUuMi0uNy4yaC0uNmMtLjMgMC0uNi0uMS0uOC0uMmwtLjktLjNjLS4yLS4xLS4zLS4xLS41LS4ycy0uNS0uMS0uNy0uMWMtLjMgMC0uNiAwLS45LjEtLjQuMS0uOC4yLTEuMi40LS4yLjEtLjMuMS0uNS4yLS4zLjEtLjYuMi0uOS4yaC0uNGMtLjMgMC0uNi0uMS0uOC0uMy0uNC0uMi0uOC0uNS0xLjEtLjgtLjMtLjMtLjYtLjYtLjgtMS0uNS0uNi0uOS0xLjMtMS4yLTItLjQtLjgtLjctMS42LS45LTIuNS0uMS0uNC0uMi0uOC0uMi0xLjMgMC0uMy0uMS0uNi0uMS0uOXYtLjljMC0uMiAwLS40LjEtLjcgMC0uMy4xLS43LjItMSAuMi0uOS42LTEuNiAxLjItMi4zLjYtLjcgMS40LTEuMiAyLjItMS40LjQtLjEuOS0uMiAxLjMtLjJoMWMuMyAwIC42LjEuOS4yLjIuMS41LjIuNy4zLjIuMS40LjIuNi4yLjIuMS41LjEuNy4xLjIgMCAuNS0uMS43LS4ybC45LS4zYy41LS4yIDEuMS0uMyAxLjctLjMuNSAwIDEgMCAxLjQuMS41LjEuOS4yIDEuMy41LjcuMyAxLjIuOCAxLjcgMS40LS4zLjItLjYuNS0uOS44LS40LjQtLjcuOC0uOSAxLjItLjIuNS0uNC45LS40IDEuNHYuN2MwIC4zLjEuNS4xLjguMi44LjYgMS40IDEuMiAyIC4zLjMuNy42IDEuMi45LS4yIDAtLjEgMCAwIC4xeiIvPjxwYXRoIGQ9Ik0yMCA2di44YzAgLjctLjMgMS40LS43IDItLjQuNi0uOSAxLjEtMS41IDEuNC0uNC4zLS45LjQtMS40LjVoLS41di0uNWMwLS40IDAtLjcuMS0xLjEuMS0uNS40LS45LjctMS4zLjQtLjUuOC0uOSAxLjMtMS4yLjUtLjMgMS0uNiAxLjYtLjcuMS4xLjIuMS40LjF6Ii8+PC9zdmc+;" parent="urCsp88US3Rvxd7nxDVZ-52" vertex="1">
                    <mxGeometry x="272.73" y="1311" width="70" height="70" as="geometry"/>
                </mxCell>
                <mxCell id="PnuRqYjMk-wBqvXui7f1-79" value="" style="shape=image;verticalLabelPosition=bottom;labelBackgroundColor=default;verticalAlign=top;aspect=fixed;imageAspect=0;image=data:image/svg+xml,PHN2ZyB4bWxuczp4bGluaz0iaHR0cDovL3d3dy53My5vcmcvMTk5OS94bGluayIgeG1sbnM9Imh0dHA6Ly93d3cudzMub3JnLzIwMDAvc3ZnIiB4bWw6c3BhY2U9InByZXNlcnZlIiBzdHlsZT0iZW5hYmxlLWJhY2tncm91bmQ6bmV3IDAgMCA3NSA3NTsiIHZpZXdCb3g9IjAgMCA3NSA3NSIgeT0iMHB4IiB4PSIwcHgiIGlkPSJMYXllcl8xIiB2ZXJzaW9uPSIxLjEiPiYjeGE7PHN0eWxlIHR5cGU9InRleHQvY3NzIj4mI3hhOwkuc3Qwe2ZpbGw6IzAwMDt9JiN4YTsJLnN0MXtmaWxsOiMwMDA7fSYjeGE7CS5zdDJ7ZmlsbDpub25lO3N0cm9rZTojMDAwO3N0cm9rZS13aWR0aDowLjk1NzU7c3Ryb2tlLW1pdGVybGltaXQ6MTA7fSYjeGE7CS5zdDN7ZmlsbDojMDAwO3N0cm9rZTojMDAwO3N0cm9rZS13aWR0aDowLjMxOTI7c3Ryb2tlLW1pdGVybGltaXQ6MTA7fSYjeGE7CS5zdDR7ZmlsbDpub25lO3N0cm9rZTojMDAwO3N0cm9rZS13aWR0aDoxLjgwNztzdHJva2UtbWl0ZXJsaW1pdDoxMDt9JiN4YTsJLnN0NXtmaWxsOm5vbmU7c3Ryb2tlOiMwMDA7c3Ryb2tlLXdpZHRoOjEuODAyNDtzdHJva2UtbWl0ZXJsaW1pdDoxMDt9JiN4YTs8L3N0eWxlPiYjeGE7PGc+JiN4YTsJPGc+JiN4YTsJCTxwYXRoIGQ9Ik01Mi43LDM3YzAtMS43LTAuOC0yLjktMS41LTMuNUM1MC4zLDMyLjYsNDksMzIsNDcuNywzMmMwLDAtMC4xLDAtMC4xLDBjLTIuMywwLjEtNC43LDAtNywwYy0xLDAtMiwwLTMsMCYjMTA7JiM5OyYjOTsmIzk7YzAsMCwwLDAtMC4xLDBIMjcuMmMtMC43LDAtMS40LDAuMi0yLDAuNGMtMS45LDAuOS0yLjksMi41LTIuOSw0LjdjMCwyLjEsMCw0LjIsMCw2LjNsMCwyLjFjMCwwLjIsMCwwLjQsMC4xLDAuNSYjMTA7JiM5OyYjOTsmIzk7YzAuMSwwLjQsMC40LDAuNywwLjgsMC43YzAuNCwwLDAuNy0wLjIsMC45LTAuNmMwLjEtMC4yLDAtMC40LDAtMC41bDAtMC4xYzAtMSwwLTIsMC0zYzAtMS45LDAtMy43LDAtNS42YzAtMS41LDEuMS0yLjgsMi41LTMuMSYjMTA7JiM5OyYjOTsmIzk7YzAuMiwwLDAuNC0wLjEsMC40LTAuMWMwLDAsMCwwLjIsMCwwLjRsMCwzLjhjMCwyLjcsMCw1LjQsMCw4YzAsMi40LDIsNC42LDQuNSw0LjdjMC4zLDAsMC4zLDAuMSwwLjMsMC40YzAsMS42LDAsMy4xLDAsNC43JiMxMDsmIzk7JiM5OyYjOTtsMCwxLjNsMCwwLjFjMCwwLjEsMCwwLjMsMCwwLjRjMC4xLDAuNCwwLjQsMC43LDAuOCwwLjdjMCwwLDAsMCwwLDBjMC40LDAsMC44LTAuMywwLjgtMC43YzAtMC4xLDAtMC4zLDAtMC40bDAtMC4xbDAtMS41JiMxMDsmIzk7JiM5OyYjOTtjMC0xLjUsMC0zLDAtNC41YzAtMC4yLDAtMC4yLDAuMS0wLjNjMCwwLDAuMS0wLjEsMC4zLTAuMWMwLDAsMCwwLDAsMGMyLjUsMCw0LjksMCw3LjIsMGMwLjEsMCwwLjMsMCwwLjMsMC4xJiMxMDsmIzk7JiM5OyYjOTtjMCwwLDAuMSwwLjEsMC4xLDAuM2MwLDEuNCwwLDIuOCwwLDQuMmwwLDEuM2wwLDAuMmMwLDAuMiwwLDAuNSwwLDAuN2MwLDAuNCwwLjQsMC44LDAuOCwwLjhjMCwwLDAsMCwwLDBjMC40LDAsMC44LTAuMywwLjgtMC44JiMxMDsmIzk7JiM5OyYjOTtjMC0wLjEsMC0wLjIsMC0wLjRsMC0wLjFsMC0xLjZjMC0xLjUsMC0zLDAtNC41YzAtMC4zLDAtMC4zLDAuMy0wLjNjMC42LDAsMS4xLTAuMiwxLjctMC41YzEuOS0xLDIuOC0yLjUsMi44LTQuNCYjMTA7JiM5OyYjOTsmIzk7YzAtMy45LDAtNy45LDAtMTEuOGMwLTAuMSwwLTAuMiwwLTAuM2MwLDAsMC4xLDAsMC4yLDBjMS42LDAuMywyLjcsMS42LDIuNywzLjFjMCwxLjksMCwzLjksMCw1LjdjMCwxLDAsMS45LDAsMi45djAmIzEwOyYjOTsmIzk7JiM5O2MwLDAuMiwwLDAuNCwwLjEsMC42YzAuMSwwLjQsMC40LDAuNiwwLjgsMC42YzAuNCwwLDAuNy0wLjIsMC44LTAuNmMwLTAuMiwwLjEtMC4zLDAuMS0wLjVsMC0xLjlDNTIuNyw0MS41LDUyLjcsMzkuMiw1Mi43LDM3eiYjMTA7JiM5OyYjOTsmIzk7IE0zOC4xLDQ5LjFjLTAuMSwwLTAuMSwwLTAuMiwwbC0wLjcsMGMtMS42LDAtMy4zLDAtNC45LDBjLTIuMiwwLTMuNS0xLjMtMy41LTMuNWMwLTIuNSwwLTUuMSwwLTcuNnYtMy44YzAtMC40LDAtMC40LDAuNS0wLjQmIzEwOyYjOTsmIzk7JiM5O2w4LjMsMGwyLjEsMGMyLDAsNC4xLDAsNi4xLDBjMC4yLDAsMC4zLDAsMC40LDAuMWMwLjEsMC4xLDAuMSwwLjIsMC4xLDAuNGMwLDMuOCwwLDcuNSwwLDExLjJjMCwwLjcsMCwxLjUtMC40LDIuMSYjMTA7JiM5OyYjOTsmIzk7Yy0wLjYsMS0xLjUsMS41LTIuNiwxLjVjLTEuMywwLTIuNiwwLTMuOSwwQzM4LjksNDkuMSwzOC41LDQ5LjEsMzguMSw0OS4xeiIgY2xhc3M9InN0MSIvPiYjeGE7CQk8cGF0aCBkPSJNMjguNiwzMC44bDYuNywwbDExLjIsMGMwLjEsMCwwLjMsMCwwLjUsMGMwLjctMC4xLDEtMC40LDEtMS4xYzAtMC43LTAuMS0xLjUtMC40LTIuNCYjMTA7JiM5OyYjOTsmIzk7Yy0wLjYtMi4xLTEuNy0zLjktMy4zLTUuM2MtMC4zLTAuMi0wLjMtMC4zLTAuMS0wLjZjMC40LTAuNSwwLjctMS4xLDEuMS0xLjZjMC4xLTAuMiwwLjMtMC40LDAuNC0wLjZjMC4xLTAuMSwwLjItMC4yLDAuMi0wLjQmIzEwOyYjOTsmIzk7JiM5O2MwLjItMC4zLDAuNC0wLjYsMC42LTAuOWMwLjItMC40LDAuMS0wLjktMC4yLTEuMWMtMC40LTAuMy0wLjgtMC4yLTEuMSwwLjFjLTAuMSwwLjEtMC4yLDAuMy0wLjMsMC40bC0wLjUsMC43JiMxMDsmIzk7JiM5OyYjOTtjLTAuNSwwLjctMSwxLjUtMS41LDIuM2MtMC4yLDAuMy0wLjMsMC40LTAuNiwwLjJjLTAuOC0wLjQtMS42LTAuNy0yLjMtMC44Yy0yLjMtMC41LTQuNi0wLjMtNi44LDAuOGMtMC41LDAuMi0wLjUsMC4yLTAuOC0wLjMmIzEwOyYjOTsmIzk7JiM5O2wtMC41LTAuOGMtMC41LTAuOC0xLjEtMS42LTEuNi0yLjRjLTAuMi0wLjMtMC40LTAuNC0wLjYtMC41Yy0wLjIsMC0wLjQsMC0wLjYsMC4yYy0wLjQsMC4zLTAuNSwwLjgtMC4xLDEuM2wwLjYsMC44JiMxMDsmIzk7JiM5OyYjOTtjMC42LDAuOCwxLjEsMS43LDEuNywyLjVjMC4yLDAuMiwwLjEsMC4zLTAuMSwwLjVjLTIuMiwxLjktMy41LDQuMy0zLjcsNy4yYy0wLjEsMC43LDAsMS4xLDAuMiwxLjQmIzEwOyYjOTsmIzk7JiM5O0MyNy41LDMwLjcsMjcuOSwzMC44LDI4LjYsMzAuOHogTTI4LjksMjguN2MwLjUtMy4yLDIuMy01LjUsNS4zLTYuOGMxLTAuNCwyLjItMC43LDMuMy0wLjdjMS4zLDAsMi41LDAuMywzLjcsMC44JiMxMDsmIzk7JiM5OyYjOTtjMi4yLDEuMSwzLjksMyw0LjYsNS4zYzAuMSwwLjMsMC4xLDAuNSwwLjIsMC44YzAsMC4yLDAuMSwwLjQsMC4xLDAuNmMwLDAuMSwwLDAuMiwwLDAuMmMwLDAsMCwwLTAuMiwwYzAsMCwwLDAsMCwwJiMxMDsmIzk7JiM5OyYjOTtjLTIuMiwwLTQuNCwwLTYuNywwaC0xLjl2MGwtMS45LDBjLTIuMSwwLTQuMywwLTYuNCwwYzAsMCwwLDAsMCwwYy0wLjIsMC0wLjIsMC0wLjIsMEMyOC45LDI4LjksMjguOCwyOC44LDI4LjksMjguN3oiIGNsYXNzPSJzdDAiLz4mI3hhOwk8L2c+JiN4YTs8L2c+JiN4YTs8L3N2Zz4=;" parent="urCsp88US3Rvxd7nxDVZ-52" vertex="1">
                    <mxGeometry x="338.2199999999999" y="1309.75" width="75" height="75" as="geometry"/>
                </mxCell>
                <mxCell id="PnuRqYjMk-wBqvXui7f1-80" value="" style="shape=image;verticalLabelPosition=bottom;labelBackgroundColor=default;verticalAlign=top;aspect=fixed;imageAspect=0;image=data:image/svg+xml,PHN2ZyB4bWxuczp4bGluaz0iaHR0cDovL3d3dy53My5vcmcvMTk5OS94bGluayIgeG1sbnM9Imh0dHA6Ly93d3cudzMub3JnLzIwMDAvc3ZnIiB4bWw6c3BhY2U9InByZXNlcnZlIiBzdHlsZT0iZW5hYmxlLWJhY2tncm91bmQ6bmV3IDAgMCA3NSA3NTsiIHZpZXdCb3g9IjAgMCA3NSA3NSIgeT0iMHB4IiB4PSIwcHgiIGlkPSJMYXllcl8xIiB2ZXJzaW9uPSIxLjEiPiYjeGE7PHN0eWxlIHR5cGU9InRleHQvY3NzIj4mI3hhOwkuc3Qwe2ZpbGw6IzAwMDt9JiN4YTsJLnN0MXtmaWxsOiMwMDA7fSYjeGE7CS5zdDJ7ZmlsbDpub25lO3N0cm9rZTojMDAwO3N0cm9rZS13aWR0aDowLjk1NzU7c3Ryb2tlLW1pdGVybGltaXQ6MTA7fSYjeGE7CS5zdDN7ZmlsbDojMDAwO3N0cm9rZTojMDAwO3N0cm9rZS13aWR0aDowLjMxOTI7c3Ryb2tlLW1pdGVybGltaXQ6MTA7fSYjeGE7CS5zdDR7ZmlsbDpub25lO3N0cm9rZTojMDAwO3N0cm9rZS13aWR0aDoxLjgwNztzdHJva2UtbWl0ZXJsaW1pdDoxMDt9JiN4YTsJLnN0NXtmaWxsOm5vbmU7c3Ryb2tlOiMwMDA7c3Ryb2tlLXdpZHRoOjEuODAyNDtzdHJva2UtbWl0ZXJsaW1pdDoxMDt9JiN4YTs8L3N0eWxlPiYjeGE7PGc+JiN4YTsJPGc+JiN4YTsJCTxnPiYjeGE7CQkJPHBhdGggZD0iTTUzLDM3LjhjLTEuMiwwLTIuMywwLTMuNSwwYy0zLjgsMC03LjgsMC0xMS43LDBjMCwwLTAuMSwwLTAuMSwwYy0wLjcsMC0xLjIsMC4yLTEuNiwwLjUmIzEwOyYjOTsmIzk7JiM5OyYjOTtjLTAuMywwLjMtMC41LDAuOS0wLjUsMS43YzAuMSwzLjQsMC4xLDYuOSwwLDEwLjRjMCwxLjQsMC41LDIsMiwyLjJjNCwwLjUsOC4yLDEuMiwxMi4xLDEuOGMxLjUsMC4yLDMsMC40LDQuNSwwLjdsMC41LDBsMC00LjUmIzEwOyYjOTsmIzk7JiM5OyYjOTtjMC0zLjcsMC03LjUsMC4xLTExLjJjMC0wLjUtMC4xLTAuOS0wLjQtMS4yQzU0LjIsMzcuOCw1My42LDM3LjgsNTMsMzcuOHogTTM3LDQwLjdjMC0wLjUsMC4xLTAuOCwwLjMtMWMwLjItMC4yLDAuNS0wLjMsMS0wLjMmIzEwOyYjOTsmIzk7JiM5OyYjOTtjMCwwLDAsMCwwLDBjMS42LDAsMy4zLDAsNC45LDBjMC43LDAsMS4zLDAsMiwwYzAuNywwLDEuNCwwLDIuMiwwYzEuNSwwLDMuMSwwLDQuNiwwYzAuNiwwLDEsMC4xLDEuMywwLjMmIzEwOyYjOTsmIzk7JiM5OyYjOTtjMC4yLDAuMiwwLjMsMC42LDAuMywxLjJjMCwzLjUsMCw3LjIsMCwxMS4zYzAsMC41LTAuMSwwLjgtMC4zLDFjLTAuMiwwLjItMC41LDAuMi0xLDAuMWMtMi45LTAuNC01LjktMC44LTguOC0xLjImIzEwOyYjOTsmIzk7JiM5OyYjOTtjLTEuOC0wLjMtMy42LTAuNS01LjUtMC44Yy0wLjgtMC4xLTEuMi0wLjYtMS4yLTEuNEMzNyw0Ni44LDM3LDQzLjcsMzcsNDAuN3oiIGNsYXNzPSJzdDAiLz4mI3hhOwkJCTxwYXRoIGQ9Ik0zNC44LDM5LjdjMC0wLjctMC4xLTEuMS0wLjQtMS40Yy0wLjMtMC4zLTAuNy0wLjQtMS4zLTAuNGMwLDAsMCwwLDAsMGMtMy4xLDAtNi4yLDAuMS05LjMsMC4xbC0zLjcsMHYxMi40JiMxMDsmIzk7JiM5OyYjOTsmIzk7bDAuMSwwYzEuMiwwLjIsMi40LDAuMywzLjUsMC40YzIuOSwwLjQsNiwwLjgsOSwxLjJjMC4zLDAsMC41LDAuMSwwLjcsMC4xYzAuNCwwLDAuNy0wLjEsMS0wLjNjMC4zLTAuMywwLjQtMC43LDAuNC0xLjUmIzEwOyYjOTsmIzk7JiM5OyYjOTtDMzQuNyw0Ni43LDM0LjcsNDMuMSwzNC44LDM5Ljd6IE0zMy4zLDQ1bDAsMS40YzAsMSwwLDIsMCwzYzAsMC40LTAuMSwwLjctMC4zLDAuOWMtMC4yLDAuMi0wLjUsMC4yLTAuOSwwLjEmIzEwOyYjOTsmIzk7JiM5OyYjOTtjLTMuMy0wLjUtNi42LTAuOS05LjQtMS4yYy0wLjgtMC4xLTEuMi0wLjUtMS4yLTEuM2MwLTEuOSwwLTMuOCwwLTUuN3YtMS43YzAtMC40LDAuMS0wLjcsMC4zLTAuOWMwLjItMC4yLDAuNi0wLjMsMS0wLjMmIzEwOyYjOTsmIzk7JiM5OyYjOTtjMCwwLDAsMCwwLDBjMy42LDAsNi41LDAsOS4yLDBjMCwwLDAsMCwwLDBjMC40LDAsMC44LDAuMSwxLDAuM2MwLjIsMC4yLDAuMywwLjYsMC4zLDEuMmMwLDEsMCwyLDAsM0wzMy4zLDQ1eiIgY2xhc3M9InN0MCIvPiYjeGE7CQkJPHBhdGggZD0iTTMzLjIsMzYuOUMzMy4yLDM2LjksMzMuMiwzNi45LDMzLjIsMzYuOWMwLjUsMCwwLjktMC4xLDEuMi0wLjRjMC40LTAuNCwwLjQtMSwwLjQtMS40YzAtMy41LDAtNywwLTEwLjQmIzEwOyYjOTsmIzk7JiM5OyYjOTtjMC0wLjctMC4xLTEuMi0wLjUtMS41Yy0wLjMtMC4zLTAuOC0wLjQtMS41LTAuM2MtMywwLjUtNi4xLDAuOS05LjEsMS4zYy0xLjIsMC4yLTIuNCwwLjMtMy42LDAuNWwtMC4xLDB2MTJsMy44LDAmIzEwOyYjOTsmIzk7JiM5OyYjOTtDMjYuOSwzNi44LDMwLjEsMzYuOCwzMy4yLDM2Ljl6IE0zMy4zLDM0LjNjMCwwLjUtMC4xLDAuOC0wLjMsMWMtMC4yLDAuMi0wLjYsMC4zLTEuMiwwLjNjLTEuMSwwLTIuMiwwLTMuMiwwJiMxMDsmIzk7JiM5OyYjOTsmIzk7Yy0wLjksMC0xLjgsMC0yLjcsMGMtMSwwLTIuMSwwLTMuMSwwYy0wLjUsMC0wLjktMC4xLTEuMS0wLjNjLTAuMi0wLjItMC4zLTAuNS0wLjMtMWMwLTEuOSwwLTMuOSwwLTUuN2wwLTEuNCYjMTA7JiM5OyYjOTsmIzk7JiM5O2MwLTAuOSwwLjMtMS4yLDEuMS0xLjNjMS45LTAuMywzLjgtMC41LDUuOC0wLjhjMS4zLTAuMiwyLjUtMC40LDMuOC0wLjVjMC4xLDAsMC4yLDAsMC4zLDBjMC4zLDAsMC41LDAuMSwwLjYsMC4yJiMxMDsmIzk7JiM5OyYjOTsmIzk7YzAuMiwwLjIsMC4zLDAuNSwwLjMsMC45YzAsMSwwLDEuOSwwLDIuOUMzMy4zLDMwLjQsMzMuMywzMi40LDMzLjMsMzQuM3oiIGNsYXNzPSJzdDAiLz4mI3hhOwkJCTxwYXRoIGQ9Ik0zNS43LDM1YzAsMC43LDAuMSwxLjIsMC40LDEuNWMwLjMsMC4zLDAuNywwLjQsMS4zLDAuNGMwLDAsMC4xLDAsMC4xLDBjMS44LDAsMy42LDAsNS40LDAmIzEwOyYjOTsmIzk7JiM5OyYjOTtjMC44LDAsMS41LDAsMi4zLDBjMC43LDAsMS41LDAsMi4yLDBjMS45LDAsMy44LDAsNS42LDBjMCwwLDAsMCwwLjEsMGMwLjYsMCwxLjEtMC4xLDEuMy0wLjRjMC4zLTAuMywwLjQtMC43LDAuNC0xLjMmIzEwOyYjOTsmIzk7JiM5OyYjOTtjMC00LjcsMC05LjUsMC0xMy43YzAtMC42LTAuMS0xLTAuNC0xLjNjLTAuMy0wLjItMC43LTAuMy0xLjItMC4ybC0zLjksMC42Yy0zLjksMC42LTgsMS4yLTEyLDEuOGMtMS4yLDAuMi0xLjcsMC44LTEuNywyLjEmIzEwOyYjOTsmIzk7JiM5OyYjOTtDMzUuNywyOCwzNS43LDMxLjYsMzUuNywzNXogTTM3LDI1YzAtMSwwLjMtMS4zLDEuMy0xLjRjNC45LTAuNyw5LjgtMS40LDEzLjktMmMwLjIsMCwwLjMsMCwwLjQsMGMwLjMsMCwwLjUsMC4xLDAuNywwLjImIzEwOyYjOTsmIzk7JiM5OyYjOTtjMC4yLDAuMiwwLjMsMC42LDAuMywxLjJjMCw0LjEsMCw3LjgsMCwxMS4zYzAsMC41LTAuMSwwLjktMC4zLDEuMWMtMC4yLDAuMi0wLjYsMC4zLTEuMiwwLjNjLTEuNiwwLTMuMywwLTQuOSwwJiMxMDsmIzk7JiM5OyYjOTsmIzk7Yy0xLjMsMC0yLjcsMC00LDBjLTEuNiwwLTMuMiwwLTQuOCwwYy0wLjYsMC0wLjktMC4xLTEuMi0wLjNjLTAuMi0wLjItMC4zLTAuNi0wLjMtMS4xQzM3LDMxLjMsMzcsMjguMywzNywyNXoiIGNsYXNzPSJzdDAiLz4mI3hhOwkJPC9nPiYjeGE7CTwvZz4mI3hhOzwvZz4mI3hhOzwvc3ZnPg==;" parent="urCsp88US3Rvxd7nxDVZ-52" vertex="1">
                    <mxGeometry x="406.4900000000001" y="1311" width="75" height="75" as="geometry"/>
                </mxCell>
                <mxCell id="PnuRqYjMk-wBqvXui7f1-84" value="" style="shape=image;verticalLabelPosition=bottom;labelBackgroundColor=default;verticalAlign=top;aspect=fixed;imageAspect=0;image=data:image/svg+xml,PHN2ZyB4bWxucz0iaHR0cDovL3d3dy53My5vcmcvMjAwMC9zdmciIHZpZXdCb3g9IjAgMCA3NSA3NSIgZGF0YS1uYW1lPSJMYXllciAxIiBpZD0iYmMzMmZiYTAtNmY5NS00OTU2LWI2NGEtMzU0MDZmYzgxMDQxIj4mI3hhOyAgICA8ZGVmcz4mI3hhOyAgICAgICAgPHN0eWxlPiYjeGE7ICAgICAgICAgICAgLmFmODQzMThkLTUxZjctNDJjOS1hNjdiLWFjY2Q1ZDdmMGNiNntmaWxsOiMwMDA7fS5hMWVkMzIwMi0xYzAzLTQ0NmQtYTI0Yi1jNDU3ZGM4MGEzYTd7ZmlsbDojMDAwO308L3N0eWxlPiYjeGE7ICAgIDwvZGVmcz4mI3hhOyAgICA8cGF0aCBkPSJNNDAuMjEsNDAuMjZhOC45MSw4LjkxLDAsMSwwLTUuNDIsMEExNSwxNSwwLDAsMCwyMi41Miw1NXYuNzVoMzBWNTVBMTUsMTUsMCwwLDAsNDAuMjEsNDAuMjZaTTMwLjA5LDMxLjc4YTcuNDEsNy40MSwwLDEsMSw3LjQxLDcuNDFBNy40Miw3LjQyLDAsMCwxLDMwLjA5LDMxLjc4Wk0yNCw1NC4yNGExMy40OCwxMy40OCwwLDAsMSwyNi45MiwwWiIgY2xhc3M9ImFmODQzMThkLTUxZjctNDJjOS1hNjdiLWFjY2Q1ZDdmMGNiNiIvPiYjeGE7ICAgIDxwYXRoIGQ9Ik0xOC4xMSwzNy45YTEzLjM2LDEzLjM2LDAsMCwxLDkuNTMsNGwxLjA2LTEuMDZhMTQuODMsMTQuODMsMCwwLDAtNy44Ny00LjE0LDguOSw4LjksMCwxLDAtNS40MywwQTE1LDE1LDAsMCwwLDMuMTMsNTEuMzh2Ljc1SDIxdi0xLjVINC42NUExMy40OSwxMy40OSwwLDAsMSwxOC4xMSwzNy45Wk0xMC43LDI4LjE3YTcuNDEsNy40MSwwLDEsMSw3LjQxLDcuNDFBNy40Myw3LjQzLDAsMCwxLDEwLjcsMjguMTdaIiBjbGFzcz0iYTFlZDMyMDItMWMwMy00NDZkLWEyNGItYzQ1N2RjODBhM2E3Ii8+JiN4YTsgICAgPHBhdGggZD0iTTU5LjYsMzYuNjZhOC45Miw4LjkyLDAsMSwwLTUuNDMsMCwxNC44MywxNC44MywwLDAsMC03Ljg3LDQuMTRsMS4wNiwxLjA2YTEzLjQ4LDEzLjQ4LDAsMCwxLDIzLDguNzhINTR2MS41SDcxLjg3di0uNzVBMTUsMTUsMCwwLDAsNTkuNiwzNi42NlpNNDkuNDgsMjguMTdhNy40MSw3LjQxLDAsMSwxLDcuNDEsNy40MUE3LjQzLDcuNDMsMCwwLDEsNDkuNDgsMjguMTdaIiBjbGFzcz0iYTFlZDMyMDItMWMwMy00NDZkLWEyNGItYzQ1N2RjODBhM2E3Ii8+JiN4YTs8L3N2Zz4=;" parent="urCsp88US3Rvxd7nxDVZ-52" vertex="1">
                    <mxGeometry x="5" y="1200.76" width="75" height="75" as="geometry"/>
                </mxCell>
                <mxCell id="PnuRqYjMk-wBqvXui7f1-85" value="Desktop" style="shape=image;verticalLabelPosition=bottom;labelBackgroundColor=default;verticalAlign=top;aspect=fixed;imageAspect=0;image=data:image/svg+xml,PHN2ZyB4bWxucz0iaHR0cDovL3d3dy53My5vcmcvMjAwMC9zdmciIHdpZHRoPSI1MTIiIHZpZXdCb3g9IjAgMCAyNCAyNCIgaGVpZ2h0PSI1MTIiIGZpbGw9Im5vbmUiPjxwYXRoIGZpbGwtcnVsZT0iZXZlbm9kZCIgZmlsbD0icmdiKDAsMCwwKSIgZD0ibTEuMjUgNmMwLTEuNTE4NzggMS4yMzEyMi0yLjc1IDIuNzUtMi43NWgxNmMxLjUxODggMCAyLjc1IDEuMjMxMjIgMi43NSAyLjc1djEwYzAgMS41MTg4LTEuMjMxMiAyLjc1LTIuNzUgMi43NWgtNS43ODY1bC43NSAxLjVoMi4wMzY1Yy40MTQyIDAgLjc1LjMzNTguNzUuNzVzLS4zMzU4Ljc1LS43NS43NWgtMTBjLS40MTQyMSAwLS43NS0uMzM1OC0uNzUtLjc1cy4zMzU3OS0uNzUuNzUtLjc1aDIuMDM2NDdsLjc1LTEuNWgtNS43ODY0N2MtMS41MTg3OCAwLTIuNzUtMS4yMzEyLTIuNzUtMi43NXptMTguNzUgMTEuMjVoLTE2Yy0uNjkwMzYgMC0xLjI1LS41NTk2LTEuMjUtMS4yNXYtMTBjMC0uNjkwMzYuNTU5NjQtMS4yNSAxLjI1LTEuMjVoMTZjLjY5MDQgMCAxLjI1LjU1OTY0IDEuMjUgMS4yNXYxMGMwIC42OTA0LS41NTk2IDEuMjUtMS4yNSAxLjI1eiIgY2xpcC1ydWxlPSJldmVub2RkIi8+PC9zdmc+;fontStyle=1" parent="urCsp88US3Rvxd7nxDVZ-52" vertex="1">
                    <mxGeometry x="-50.870000000000005" y="1275.76" width="70" height="70" as="geometry"/>
                </mxCell>
                <mxCell id="xsCPCYvkKm-rd6Kjv4GH-4" value="" style="endArrow=none;html=1;rounded=0;exitX=0.003;exitY=0.227;exitDx=0;exitDy=0;exitPerimeter=0;strokeColor=#38112D;strokeWidth=3;" parent="urCsp88US3Rvxd7nxDVZ-52" edge="1">
                    <mxGeometry width="50" height="50" relative="1" as="geometry">
                        <mxPoint x="-395.01497000000035" y="1834.9877499999998" as="sourcePoint"/>
                        <mxPoint x="740" y="1830" as="targetPoint"/>
                    </mxGeometry>
                </mxCell>
                <mxCell id="xsCPCYvkKm-rd6Kjv4GH-5" value="" style="endArrow=none;html=1;rounded=0;exitX=0.003;exitY=0.227;exitDx=0;exitDy=0;exitPerimeter=0;strokeColor=#38112D;strokeWidth=3;entryX=1;entryY=0.318;entryDx=0;entryDy=0;entryPerimeter=0;" parent="urCsp88US3Rvxd7nxDVZ-52" target="xsCPCYvkKm-rd6Kjv4GH-3" edge="1">
                    <mxGeometry width="50" height="50" relative="1" as="geometry">
                        <mxPoint x="-395.01497000000035" y="2016.49775" as="sourcePoint"/>
                        <mxPoint x="707.78" y="2011.75" as="targetPoint"/>
                    </mxGeometry>
                </mxCell>
                <mxCell id="xsCPCYvkKm-rd6Kjv4GH-18" value="" style="endArrow=none;html=1;rounded=0;exitX=0.003;exitY=0.227;exitDx=0;exitDy=0;exitPerimeter=0;strokeColor=#38112D;strokeWidth=3;entryX=0.998;entryY=0.842;entryDx=0;entryDy=0;entryPerimeter=0;" parent="urCsp88US3Rvxd7nxDVZ-52" target="xsCPCYvkKm-rd6Kjv4GH-3" edge="1">
                    <mxGeometry width="50" height="50" relative="1" as="geometry">
                        <mxPoint x="-395.01497000000035" y="2657.74775" as="sourcePoint"/>
                        <mxPoint x="707.78" y="2653" as="targetPoint"/>
                    </mxGeometry>
                </mxCell>
                <mxCell id="xsCPCYvkKm-rd6Kjv4GH-19" value="&lt;font style=&quot;font-size: 20px;&quot;&gt;Connectivity&lt;/font&gt;" style="text;strokeColor=none;fillColor=none;html=1;fontSize=24;fontStyle=1;verticalAlign=middle;align=right;" parent="urCsp88US3Rvxd7nxDVZ-52" vertex="1">
                    <mxGeometry x="630" y="2670" width="67" height="22.62" as="geometry"/>
                </mxCell>
                <mxCell id="xsCPCYvkKm-rd6Kjv4GH-22" value="&lt;font style=&quot;font-size: 20px;&quot;&gt;Frontend Dev&lt;/font&gt;" style="text;strokeColor=none;fillColor=none;html=1;fontSize=24;fontStyle=1;verticalAlign=middle;align=right;" parent="urCsp88US3Rvxd7nxDVZ-52" vertex="1">
                    <mxGeometry x="630" y="2233.75" width="67" height="22.62" as="geometry"/>
                </mxCell>
                <mxCell id="xsCPCYvkKm-rd6Kjv4GH-25" value="" style="endArrow=none;html=1;rounded=0;exitX=0.003;exitY=0.227;exitDx=0;exitDy=0;exitPerimeter=0;strokeColor=#38112D;strokeWidth=3;entryX=0.999;entryY=0.676;entryDx=0;entryDy=0;entryPerimeter=0;" parent="urCsp88US3Rvxd7nxDVZ-52" target="xsCPCYvkKm-rd6Kjv4GH-3" edge="1">
                    <mxGeometry width="50" height="50" relative="1" as="geometry">
                        <mxPoint x="-396.7849700000003" y="2454.74775" as="sourcePoint"/>
                        <mxPoint x="710" y="2450" as="targetPoint"/>
                    </mxGeometry>
                </mxCell>
                <mxCell id="xsCPCYvkKm-rd6Kjv4GH-26" value="" style="endArrow=none;html=1;rounded=0;exitX=0.003;exitY=0.227;exitDx=0;exitDy=0;exitPerimeter=0;strokeColor=#38112D;strokeWidth=3;entryX=0.997;entryY=0.486;entryDx=0;entryDy=0;entryPerimeter=0;" parent="urCsp88US3Rvxd7nxDVZ-52" target="xsCPCYvkKm-rd6Kjv4GH-3" edge="1">
                    <mxGeometry width="50" height="50" relative="1" as="geometry">
                        <mxPoint x="-396.7849700000003" y="2221.12775" as="sourcePoint"/>
                        <mxPoint x="710" y="2216" as="targetPoint"/>
                    </mxGeometry>
                </mxCell>
                <mxCell id="xsCPCYvkKm-rd6Kjv4GH-27" value="&lt;span style=&quot;font-size: 20px;&quot;&gt;Runtime&lt;/span&gt;" style="text;strokeColor=none;fillColor=none;html=1;fontSize=24;fontStyle=1;verticalAlign=middle;align=right;" parent="urCsp88US3Rvxd7nxDVZ-52" vertex="1">
                    <mxGeometry x="630" y="2025.5" width="67" height="22.62" as="geometry"/>
                </mxCell>
                <mxCell id="xsCPCYvkKm-rd6Kjv4GH-39" value="" style="shape=curlyBracket;whiteSpace=wrap;html=1;rounded=1;labelPosition=left;verticalLabelPosition=middle;align=right;verticalAlign=middle;rotation=90;" parent="urCsp88US3Rvxd7nxDVZ-52" vertex="1">
                    <mxGeometry x="365.72" y="1238.75" width="20" height="135" as="geometry"/>
                </mxCell>
                <mxCell id="xsCPCYvkKm-rd6Kjv4GH-41" value="Neptune DXP - SAP Edition&amp;nbsp;&lt;span style=&quot;background-color: initial;&quot;&gt;as&lt;/span&gt;&lt;div&gt;&lt;span style=&quot;background-color: initial;&quot;&gt;&amp;nbsp;central development platform&lt;/span&gt;&lt;/div&gt;" style="text;strokeColor=none;fillColor=none;html=1;fontSize=20;fontStyle=1;verticalAlign=middle;align=center;" parent="urCsp88US3Rvxd7nxDVZ-52" vertex="1">
                    <mxGeometry x="570" y="2860" width="100" height="40" as="geometry"/>
                </mxCell>
                <mxCell id="0hETNHY3sNTcF9YFYVwX-48" style="edgeStyle=orthogonalEdgeStyle;rounded=0;orthogonalLoop=1;jettySize=auto;html=1;entryX=0;entryY=0.5;entryDx=0;entryDy=0;" parent="urCsp88US3Rvxd7nxDVZ-52" source="0hETNHY3sNTcF9YFYVwX-34" target="PnuRqYjMk-wBqvXui7f1-24" edge="1">
                    <mxGeometry relative="1" as="geometry"/>
                </mxCell>
                <mxCell id="0hETNHY3sNTcF9YFYVwX-34" value="Tilegroup" style="shape=image;verticalLabelPosition=bottom;labelBackgroundColor=none;verticalAlign=top;aspect=fixed;imageAspect=0;image=data:image/svg+xml,PHN2ZyB4bWxucz0iaHR0cDovL3d3dy53My5vcmcvMjAwMC9zdmciIHZpZXdCb3g9IjAgMCAyNTYgMjU2IiBoZWlnaHQ9IjI1NiIgd2lkdGg9IjI1NiIgaWQ9InRpbGVncm91cCI+JiN4YTsgIDxnIGlkPSJleHBvcnQiPiYjeGE7ICAgIDxwYXRoIHN0eWxlPSJmaWxsOiAjMDAwOyBzdHJva2Utd2lkdGg6IDBweDsiIGQ9Ik05MiwwSDIwQzguOTcsMCwwLDguOTcsMCwyMHY3MmMwLDExLjAzLDguOTcsMjAsMjAsMjBoNzJjMTEuMDMsMCwyMC04Ljk3LDIwLTIwVjIwYzAtMTEuMDMtOC45Ny0yMC0yMC0yMFpNOTYsOTJjMCwyLjIxLTEuNzksNC00LDRIMjBjLTIuMjEsMC00LTEuNzktNC00VjIwYzAtMi4yMSwxLjc5LTQsNC00aDcyYzIuMjEsMCw0LDEuNzksNCw0djcyWiIvPiYjeGE7ICAgIDxwYXRoIHN0eWxlPSJmaWxsOiAjMDAwOyBzdHJva2Utd2lkdGg6IDBweDsiIGQ9Ik03MiwzMmgtMzJjLTQuNDIsMC04LDMuNTgtOCw4czMuNTgsOCw4LDhoMzJjNC40MiwwLDgtMy41OCw4LThzLTMuNTgtOC04LThaIi8+JiN4YTsgICAgPHBhdGggc3R5bGU9ImZpbGw6ICMwMDA7IHN0cm9rZS13aWR0aDogMHB4OyIgZD0iTTcyLDY0aC0zMmMtNC40MiwwLTgsMy41OC04LDhzMy41OCw4LDgsOGgzMmM0LjQyLDAsOC0zLjU4LDgtOHMtMy41OC04LTgtOFoiLz4mI3hhOyAgICA8cGF0aCBzdHlsZT0iZmlsbDogIzAwMDsgc3Ryb2tlLXdpZHRoOiAwcHg7IiBkPSJNMjM2LDE0NGgtNzJjLTExLjAzLDAtMjAsOC45Ny0yMCwyMHY3MmMwLDExLjAzLDguOTcsMjAsMjAsMjBoNzJjMTEuMDMsMCwyMC04Ljk3LDIwLTIwdi03MmMwLTExLjAzLTguOTctMjAtMjAtMjBaTTI0MCwyMzZjMCwyLjIxLTEuNzksNC00LDRoLTcyYy0yLjIxLDAtNC0xLjc5LTQtNHYtNzJjMC0yLjIxLDEuNzktNCw0LTRoNzJjMi4yMSwwLDQsMS43OSw0LDR2NzJaIi8+JiN4YTsgICAgPHBhdGggc3R5bGU9ImZpbGw6ICMwMDA7IHN0cm9rZS13aWR0aDogMHB4OyIgZD0iTTIxNiwxNzZoLTMyYy00LjQyLDAtOCwzLjU4LTgsOHMzLjU4LDgsOCw4aDMyYzQuNDIsMCw4LTMuNTgsOC04cy0zLjU4LTgtOC04WiIvPiYjeGE7ICAgIDxwYXRoIHN0eWxlPSJmaWxsOiAjMDAwOyBzdHJva2Utd2lkdGg6IDBweDsiIGQ9Ik0yMTYsMjA4aC0zMmMtNC40MiwwLTgsMy41OC04LDhzMy41OCw4LDgsOGgzMmM0LjQyLDAsOC0zLjU4LDgtOHMtMy41OC04LTgtOFoiLz4mI3hhOyAgICA8cGF0aCBzdHlsZT0iZmlsbDogIzAwMDsgc3Ryb2tlLXdpZHRoOiAwcHg7IiBkPSJNMjM2LDBoLTcyYy0xMS4wMywwLTIwLDguOTctMjAsMjB2NzJjMCwxMS4wMyw4Ljk3LDIwLDIwLDIwaDcyYzExLjAzLDAsMjAtOC45NywyMC0yMFYyMGMwLTExLjAzLTguOTctMjAtMjAtMjBaTTI0MCw5MmMwLDIuMjEtMS43OSw0LTQsNGgtNzJjLTIuMjEsMC00LTEuNzktNC00VjIwYzAtMi4yMSwxLjc5LTQsNC00aDcyYzIuMjEsMCw0LDEuNzksNCw0djcyWiIvPiYjeGE7ICAgIDxwYXRoIHN0eWxlPSJmaWxsOiAjMDAwOyBzdHJva2Utd2lkdGg6IDBweDsiIGQ9Ik05MiwxNDRIMjBjLTExLjAzLDAtMjAsOC45Ny0yMCwyMHY3MmMwLDExLjAzLDguOTcsMjAsMjAsMjBoNzJjMTEuMDMsMCwyMC04Ljk3LDIwLTIwdi03MmMwLTExLjAzLTguOTctMjAtMjAtMjBaTTk2LDIzNmMwLDIuMjEtMS43OSw0LTQsNEgyMGMtMi4yMSwwLTQtMS43OS00LTR2LTcyYzAtMi4yMSwxLjc5LTQsNC00aDcyYzIuMjEsMCw0LDEuNzksNCw0djcyWiIvPiYjeGE7ICAgIDxwYXRoIHN0eWxlPSJmaWxsOiAjMDAwOyBzdHJva2Utd2lkdGg6IDBweDsiIGQ9Ik0yMDAsMzJjLTEzLjIzLDAtMjQsMTAuNzctMjQsMjRzMTAuNzcsMjQsMjQsMjQsMjQtMTAuNzcsMjQtMjQtMTAuNzctMjQtMjQtMjRaTTIwMCw2NGMtNC40MSwwLTgtMy41OS04LThzMy41OS04LDgtOCw4LDMuNTksOCw4LTMuNTksOC04LDhaIi8+JiN4YTsgICAgPHBhdGggc3R5bGU9ImZpbGw6ICMwMDA7IHN0cm9rZS13aWR0aDogMHB4OyIgZD0iTTU2LDE3NmMtMTMuMjMsMC0yNCwxMC43Ny0yNCwyNHMxMC43NywyNCwyNCwyNCwyNC0xMC43NywyNC0yNC0xMC43Ny0yNC0yNC0yNFpNNTYsMjA4Yy00LjQxLDAtOC0zLjU5LTgtOHMzLjU5LTgsOC04LDgsMy41OSw4LDgtMy41OSw4LTgsOFoiLz4mI3hhOyAgPC9nPiYjeGE7PC9zdmc+;fontStyle=1" parent="urCsp88US3Rvxd7nxDVZ-52" vertex="1">
                    <mxGeometry x="-74.4" y="1675.32" width="70" height="70" as="geometry"/>
                </mxCell>
                <mxCell id="0hETNHY3sNTcF9YFYVwX-47" style="edgeStyle=orthogonalEdgeStyle;rounded=0;orthogonalLoop=1;jettySize=auto;html=1;entryX=0;entryY=0.5;entryDx=0;entryDy=0;" parent="urCsp88US3Rvxd7nxDVZ-52" source="0hETNHY3sNTcF9YFYVwX-36" target="0hETNHY3sNTcF9YFYVwX-34" edge="1">
                    <mxGeometry relative="1" as="geometry"/>
                </mxCell>
                <mxCell id="0hETNHY3sNTcF9YFYVwX-36" value="Tile" style="shape=image;verticalLabelPosition=bottom;labelBackgroundColor=none;verticalAlign=top;aspect=fixed;imageAspect=0;image=data:image/svg+xml,PHN2ZyB4bWxucz0iaHR0cDovL3d3dy53My5vcmcvMjAwMC9zdmciIHZpZXdCb3g9IjAgMCAyNTYgMjU2IiBoZWlnaHQ9IjI1NiIgd2lkdGg9IjI1NiIgaWQ9InRpbGUiPiYjeGE7ICA8ZyBpZD0iZXhwb3J0Ij4mI3hhOyAgICA8cGF0aCBzdHlsZT0iZmlsbDogIzAwMDsgc3Ryb2tlLXdpZHRoOiAwcHg7IiBkPSJNMjMyLDE2SDI0QzEwLjc3LDE2LDAsMjYuNzcsMCw0MHYxNjBjMCwxMy4yMywxMC43NywyNCwyNCwyNGgyMDhjMTMuMjMsMCwyNC0xMC43NywyNC0yNFY0MGMwLTEzLjIzLTEwLjc3LTI0LTI0LTI0Wk0yNDAsMjAwYzAsNC40MS0zLjU5LDgtOCw4SDI0Yy00LjQxLDAtOC0zLjU5LTgtOFY0MGMwLTQuNDEsMy41OS04LDgtOGgyMDhjNC40MSwwLDgsMy41OSw4LDh2MTYwWiIvPiYjeGE7ICAgIDxwYXRoIHN0eWxlPSJmaWxsOiAjMDAwOyBzdHJva2Utd2lkdGg6IDBweDsiIGQ9Ik03MiwxNjBoLTE2Yy00LjQyLDAtOCwzLjU4LTgsOHMzLjU4LDgsOCw4aDE2YzQuNDIsMCw4LTMuNTgsOC04cy0zLjU4LTgtOC04WiIvPiYjeGE7ICAgIDxwYXRoIHN0eWxlPSJmaWxsOiAjMDAwOyBzdHJva2Utd2lkdGg6IDBweDsiIGQ9Ik0xMDQsNjRoLTQ4Yy00LjQyLDAtOCwzLjU4LTgsOHMzLjU4LDgsOCw4aDQ4YzQuNDIsMCw4LTMuNTgsOC04cy0zLjU4LTgtOC04WiIvPiYjeGE7ICAgIDxwYXRoIHN0eWxlPSJmaWxsOiAjMDAwOyBzdHJva2Utd2lkdGg6IDBweDsiIGQ9Ik0xMDQsMTEyaC00OGMtNC40MiwwLTgsMy41OC04LDhzMy41OCw4LDgsOGg0OGM0LjQyLDAsOC0zLjU4LDgtOHMtMy41OC04LTgtOFoiLz4mI3hhOyAgICA8cGF0aCBzdHlsZT0iZmlsbDogIzAwMDsgc3Ryb2tlLXdpZHRoOiAwcHg7IiBkPSJNMTg4LDY0aC0yNGMtMTEuMDMsMC0yMCw4Ljk3LTIwLDIwdjcyYzAsMTEuMDMsOC45NywyMCwyMCwyMGgyNGMxMS4wMywwLDIwLTguOTcsMjAtMjB2LTcyYzAtMTEuMDMtOC45Ny0yMC0yMC0yMFpNMTkyLDE1NmMwLDIuMjEtMS43OSw0LTQsNGgtMjRjLTIuMjEsMC00LTEuNzktNC00di03MmMwLTIuMjEsMS43OS00LDQtNGgyNGMyLjIxLDAsNCwxLjc5LDQsNHY3MloiLz4mI3hhOyAgPC9nPiYjeGE7PC9zdmc+;fontStyle=1" parent="urCsp88US3Rvxd7nxDVZ-52" vertex="1">
                    <mxGeometry x="-310" y="1675.32" width="70" height="70" as="geometry"/>
                </mxCell>
                <mxCell id="0hETNHY3sNTcF9YFYVwX-46" style="edgeStyle=orthogonalEdgeStyle;rounded=0;orthogonalLoop=1;jettySize=auto;html=1;entryX=0.45;entryY=0.956;entryDx=0;entryDy=0;entryPerimeter=0;exitX=0;exitY=0.5;exitDx=0;exitDy=0;" parent="urCsp88US3Rvxd7nxDVZ-52" source="ryjr82bQ7CvwKwg2id3d-4" edge="1">
                    <mxGeometry relative="1" as="geometry">
                        <mxPoint x="-276.99999999999955" y="1773.6799999999998" as="targetPoint"/>
                        <mxPoint x="-36" y="2109" as="sourcePoint"/>
                    </mxGeometry>
                </mxCell>
                <mxCell id="0hETNHY3sNTcF9YFYVwX-58" value="SAP On-Premise Solutions" style="text;strokeColor=none;fillColor=#D4E1F5;html=1;fontSize=32;fontStyle=1;verticalAlign=middle;align=center;fontFamily=Helvetica;labelBackgroundColor=none;" parent="urCsp88US3Rvxd7nxDVZ-52" vertex="1">
                    <mxGeometry x="520" y="3110.000000000001" width="100" height="40" as="geometry"/>
                </mxCell>
                <mxCell id="0hETNHY3sNTcF9YFYVwX-103" value="&lt;b&gt;SAP S/4 HANA&lt;/b&gt;&lt;div&gt;&lt;b&gt;SAP ECC&lt;/b&gt;&lt;/div&gt;" style="text;html=1;align=right;verticalAlign=middle;resizable=0;points=[];autosize=1;strokeColor=none;fillColor=none;fontSize=20;" parent="urCsp88US3Rvxd7nxDVZ-52" vertex="1">
                    <mxGeometry x="610.0000000000005" y="3050" width="160" height="60" as="geometry"/>
                </mxCell>
                <mxCell id="0hETNHY3sNTcF9YFYVwX-124" style="edgeStyle=orthogonalEdgeStyle;rounded=0;orthogonalLoop=1;jettySize=auto;html=1;" parent="urCsp88US3Rvxd7nxDVZ-52" edge="1">
                    <mxGeometry relative="1" as="geometry">
                        <mxPoint x="310" y="2326" as="sourcePoint"/>
                        <mxPoint x="130" y="2326" as="targetPoint"/>
                    </mxGeometry>
                </mxCell>
                <mxCell id="0hETNHY3sNTcF9YFYVwX-105" value="Offline" style="shape=image;verticalLabelPosition=bottom;labelBackgroundColor=none;verticalAlign=top;aspect=fixed;imageAspect=0;image=data:image/svg+xml,PHN2ZyB4bWxucz0iaHR0cDovL3d3dy53My5vcmcvMjAwMC9zdmciIHZpZXdCb3g9IjAgMCAyNTYgMjU2IiBkYXRhLW5hbWU9IkxheWVyIDEiIGlkPSJMYXllcl8xIj48ZGVmcz48c3R5bGU+LmNscy0xe2ZpbGw6IzAwMDt9LmNscy0ye2ZpbGw6IzAwMDt9PC9zdHlsZT48L2RlZnM+PHBhdGggZD0iTTc3LjU4LDY3LjY5QTIxLjI3LDIxLjI3LDAsMSwxLDU2LjMxLDg5LDIxLjE1LDIxLjE1LDAsMCwxLDc3LjU4LDY3LjY5Wk05MS45Miw4OUExNC4zNywxNC4zNywwLDEsMCw3Ny41LDEwMy4zOSwxNC4zMSwxNC4zMSwwLDAsMCw5MS45Miw4OVoiIGNsYXNzPSJjbHMtMSIvPjxwYXRoIGQ9Ik0xMzEsMTA4LjdjLTEzLjQ3LS4yNy0yNS4xNSw0LjQzLTM1LjQ0LDEzLTIuNDcsMi4wNi00LjczLDQuMzEtNyw2LjU0YTQuMjMsNC4yMywwLDAsMS0yLjE3LDEuMzUsMy40OSwzLjQ5LDAsMCwxLTMuNzMtMS42OSwzLjc3LDMuNzcsMCwwLDEsMS00LjM5YzEuMjctMS4yNSwyLjU3LTIuNDcsMy44Ni0zLjY5YTY0Ljc5LDY0Ljc5LDAsMCwxLDI1LjYyLTE1LjQyLDYxLjM2LDYxLjM2LDAsMCwxLDIyLjQ4LTIuNDgsNTkuODcsNTkuODcsMCwwLDEsMjkuMjUsOS45MSw4Ny45NCw4Ny45NCwwLDAsMSwxNC4wOCwxMiwzLjM4LDMuMzgsMCwxLDEtNC43Nyw0Ljc3LDEwNi45LDEwNi45LDAsMCwwLTkuNTktOC41OSw1Mi4zMSw1Mi4zMSwwLDAsMC0yNS40MS0xMC44N0E1Ni4wNyw1Ni4wNywwLDAsMCwxMzEsMTA4LjdaIiBjbGFzcz0iY2xzLTIiLz48cGF0aCBkPSJNMTMxLjI4LDc5LjM2QTgyLjQ5LDgyLjQ5LDAsMCwwLDExMS4xNiw4MmMtLjc1LjItMS41MS4zOC0yLjI3LjUyYTMuMTksMy4xOSwwLDAsMS0zLjktMi4zNSwzLjI2LDMuMjYsMCwwLDEsMi00QTQxLjgzLDQxLjgzLDAsMCwxLDExNSw3NGE4My4xOSw4My4xOSwwLDAsMSwxNS4yNC0xLjU1YzE4LjIsMCwzNS4zMiw0LDUwLjc2LDE0YTEwNi40NywxMDYuNDcsMCwwLDEsMTcuNTQsMTQuNjQsMy40NCwzLjQ0LDAsMCwxLC4xLDUuMTFjLTEuNDgsMS40LTMuNDYsMS4xNS01LjA2LS41LTEyLjY5LTEzLjE4LTI3LjctMjIuMDgtNDYtMjUuMDZBMTA4LDEwOCwwLDAsMCwxMzEuMjgsNzkuMzZaIiBjbGFzcz0iY2xzLTIiLz48cGF0aCBkPSJNMTMwLjUsMTMxLjA1YTM5LjA2LDM5LjA2LDAsMCwxLDIxLjg5LDYuNzEsNTMuNTEsNTMuNTEsMCwwLDEsOC4zNSw2Ljg4YzEuNDIsMS40MiwxLjc0LDMuMjEuODcsNC41Ny0xLjI2LDEuOTQtMy41OCwyLjE5LTUuNDQuNS0xLjM1LTEuMjMtMi42MS0yLjU2LTQuMDYtMy42OGEzOC44NCwzOC44NCwwLDAsMC0xMS02LjM0Yy05LjE0LTMuMTUtMTcuODEtMi0yNiwyLjkzYTM0LjcsMzQuNywwLDAsMC04LjMsNi40Nyw2LjIyLDYuMjIsMCwwLDEtMS42LDEuMjgsMy40NywzLjQ3LDAsMCwxLTQuMjUtLjcxLDMuMjIsMy4yMiwwLDAsMSwwLTQuMjgsMzYuMjMsMzYuMjMsMCwwLDEsNi4xNS01LjY1LDQwLjc3LDQwLjc3LDAsMCwxLDE4LjYtOC4yNEEyNy41MiwyNy41MiwwLDAsMSwxMzAuNSwxMzEuMDVaIiBjbGFzcz0iY2xzLTIiLz48cGF0aCBkPSJNMTQ0LjE5LDE3NS4xMWMuMzgsNi43Ni01LjU2LDEzLjE4LTEzLjA3LDEzLjJhMTMuMiwxMy4yLDAsMCwxLC4wOS0yNi4zOUMxMzkuMzMsMTYyLjA2LDE0NC43MSwxNjkuMjUsMTQ0LjE5LDE3NS4xMVptLTEyLjkzLTYuMjhhNi4zMyw2LjMzLDAsMSwwLDYuMTYsNi4zNkE2LjI3LDYuMjcsMCwwLDAsMTMxLjI2LDE2OC44M1oiIGNsYXNzPSJjbHMtMiIvPjxwYXRoIGQ9Ik03Mi42Miw4MC42YTMuNjEsMy42MSwwLDAsMSwyLjU1LDEuMTVjLjgxLjcyLDEuNDIsMi4xLDIuNCwyLjA2czEuNi0xLjM2LDIuNC0yLjFhMy40MywzLjQzLDAsMCwxLDMuMjUtMUEzLjM0LDMuMzQsMCwwLDEsODUuMTUsODZhMTIuMjUsMTIuMjUsMCwwLDEtMS4zLDEuNGMtMS43MiwxLjc5LTEuNywxLjI4LDAsMy4xLjM4LjQuNzkuNzgsMS4xMiwxLjJhMy4zMywzLjMzLDAsMCwxLS4yNSw0LjU4LDMuMjYsMy4yNiwwLDAsMS00LjU3LDAsMTIuMTgsMTIuMTgsMCwwLDEtMS42NS0xLjY0Yy0uNzQtMS0xLjMyLS44Mi0yLDBhMTQuMiwxNC4yLDAsMCwxLTEuNjUsMS42NCwzLjI2LDMuMjYsMCwwLDEtNC41OC0uMTFBMy4yOSwzLjI5LDAsMCwxLDcwLDkxLjc2YTE5LjUyLDE5LjUyLDAsMCwxLDItMi4wOGMuNjMtLjU4LjU3LTEsMC0xLjU2YTIyLDIyLDAsMCwxLTEuOTItMS45NCwzLjQxLDMuNDEsMCwwLDEsMi41NS01LjU4WiIgY2xhc3M9ImNscy0xIi8+PC9zdmc+;fontStyle=1;clipPath=inset(17.67% 18% 21% 20.67%);" parent="urCsp88US3Rvxd7nxDVZ-52" vertex="1">
                    <mxGeometry x="338.22" y="2290.75" width="70" height="70" as="geometry"/>
                </mxCell>
                <mxCell id="0hETNHY3sNTcF9YFYVwX-123" style="edgeStyle=orthogonalEdgeStyle;rounded=0;orthogonalLoop=1;jettySize=auto;html=1;" parent="urCsp88US3Rvxd7nxDVZ-52" edge="1">
                    <mxGeometry relative="1" as="geometry">
                        <mxPoint x="-180" y="2326" as="sourcePoint"/>
                        <mxPoint x="10" y="2326" as="targetPoint"/>
                    </mxGeometry>
                </mxCell>
                <mxCell id="0hETNHY3sNTcF9YFYVwX-106" value="App Builder" style="shape=image;verticalLabelPosition=bottom;labelBackgroundColor=none;verticalAlign=top;aspect=fixed;imageAspect=0;image=data:image/svg+xml,PHN2ZyB4bWxucz0iaHR0cDovL3d3dy53My5vcmcvMjAwMC9zdmciIHZpZXdCb3g9IjAgMCAyNTYgMjU2IiBoZWlnaHQ9IjI1NiIgd2lkdGg9IjI1NiIgaWQ9ImFwcC1idWlsZGVyIj4mI3hhOyAgPHBhdGggc3R5bGU9ImZpbGw6ICMwMDA7IHN0cm9rZS13aWR0aDogMHB4OyIgZD0iTTIzNy41MSwxMTIuNjRjLTQuMi0xOS42NS0xMy42Ny0zOC4wNS0yNy40NS01Mi44OC0xMS4zMy0xMi4xOS0yNS4yNi0yMS42NS00MC41NS0yNy43N2gzOS44OGMzLjMsOS4zMSwxMi4xOSwxNiwyMi42MiwxNiwxMy4yMywwLDI0LTEwLjc3LDI0LTI0UzI0NS4yMywwLDIzMiwwYy0xMC40MywwLTE5LjMyLDYuNjktMjIuNjIsMTZoLTU4Ljc1Yy0zLjMtOS4zMS0xMi4xOS0xNi0yMi42Mi0xNnMtMTkuNCw2Ljc1LTIyLjY2LDE2LjEyYy0uNDQtLjA3LS44OC0uMTItMS4zNC0uMTJoLTU3LjM4QzQzLjMyLDYuNjksMzQuNDMsMCwyNCwwLDEwLjc3LDAsMCwxMC43NywwLDI0czEwLjc3LDI0LDI0LDI0YzEwLjQzLDAsMTkuMzItNi42OSwyMi42Mi0xNmg0MC4xMWMtMTUuMjYsNi4xMi0yOS4yLDE1LjU3LTQwLjU2LDI3Ljc0LTEzLjg4LDE0Ljg2LTIzLjQxLDMzLjI1LTI3LjY1LDUyLjktMTAuNiwyLjQ5LTE4LjUyLDEyLjAxLTE4LjUyLDIzLjM2LDAsMTMuMjMsMTAuNzcsMjQsMjQsMjRzMjQtMTAuNzcsMjQtMjRjMC05LjQ3LTUuNTEtMTcuNjctMTMuNDktMjEuNTcsOC42Ni0zNi44NCwzOS4wOS02Ni4zLDc3LjA0LTcyLjk3LDQuMyw0LjA1LDEwLjA5LDYuNTUsMTYuNDUsNi41NXMxMi4xNy0yLjUsMTYuNDctNi41N2MzOC42Myw2LjY1LDY4LjU5LDM1LjU4LDc3LjA5LDcyLjk2LTguMDIsMy44OS0xMy41NiwxMi4xMS0xMy41NiwyMS42MSwwLDEzLjIzLDEwLjc3LDI0LDI0LDI0czI0LTEwLjc3LDI0LTI0YzAtMTEuMzQtNy45MS0yMC44Ni0xOC40OS0yMy4zNlpNMjQsMTQ0Yy00LjQxLDAtOC0zLjU5LTgtOHMzLjU5LTgsOC04LDgsMy41OSw4LDgtMy41OSw4LTgsOFpNMjMyLDE2YzQuNDEsMCw4LDMuNTksOCw4cy0zLjU5LDgtOCw4LTgtMy41OS04LTgsMy41OS04LDgtOFpNMjQsMzJjLTQuNDEsMC04LTMuNTktOC04czMuNTktOCw4LTgsOCwzLjU5LDgsOC0zLjU5LDgtOCw4Wk0xMjgsMzJjLTQuNDEsMC04LTMuNTktOC04czMuNTktOCw4LTgsOCwzLjU5LDgsOC0zLjU5LDgtOCw4Wk0yMzIsMTQ0Yy00LjQxLDAtOC0zLjU5LTgtOHMzLjU5LTgsOC04LDgsMy41OSw4LDgtMy41OSw4LTgsOFoiLz4mI3hhOyAgPHBhdGggc3R5bGU9ImZpbGw6ICMwMDA7IHN0cm9rZS13aWR0aDogMHB4OyIgZD0iTTcyLDE5Mkg4Yy00LjQyLDAtOCwzLjU4LTgsOHY0OGMwLDQuNDIsMy41OCw4LDgsOGg2NGM0LjQyLDAsOC0zLjU4LDgtOHYtNDhjMC00LjQyLTMuNTgtOC04LThaTTY0LDI0MEgxNnYtMzJoNDh2MzJaIi8+JiN4YTsgIDxwYXRoIHN0eWxlPSJmaWxsOiAjMDAwOyBzdHJva2Utd2lkdGg6IDBweDsiIGQ9Ik0xNTIsMTc2aC00OGMtNC40MiwwLTgsMy41OC04LDh2NjRjMCw0LjQyLDMuNTgsOCw4LDhoNDhjNC40MiwwLDgtMy41OCw4LTh2LTY0YzAtNC40Mi0zLjU4LTgtOC04Wk0xNDQsMjQwaC0zMnYtNDhoMzJ2NDhaIi8+JiN4YTsgIDxwYXRoIHN0eWxlPSJmaWxsOiAjMDAwOyBzdHJva2Utd2lkdGg6IDBweDsiIGQ9Ik0yNDgsMTkyaC02NGMtNC40MiwwLTgsMy41OC04LDh2NDhjMCw0LjQyLDMuNTgsOCw4LDhoNjRjNC40MiwwLDgtMy41OCw4LTh2LTQ4YzAtNC40Mi0zLjU4LTgtOC04Wk0yNDAsMjQwaC00OHYtMzJoNDh2MzJaIi8+JiN4YTsgIDxwYXRoIHN0eWxlPSJmaWxsOiAjMDAwOyBzdHJva2Utd2lkdGg6IDBweDsiIGQ9Ik0xMDQsMTYwaDQ4YzIuNjcsMCw1LjE3LTEuMzQsNi42NS0zLjU2LDEuNDgtMi4yMiwxLjc2LTUuMDQuNzMtNy41MS01LjA2LTEyLjE3LTguOTQtMjUuMTEtMTEuNTMtMzguNDUtMi40NS0xMi42LTMuNzQtMjUuNTYtMy44NS0zOC41NC0uMDQtNC4zOS0zLjYxLTcuOTMtOC03LjkzaC0xNmMtNC4zOSwwLTcuOTYsMy41NC04LDcuOTMtLjExLDEyLjk4LTEuNDEsMjUuOTUtMy44NSwzOC41NC0yLjU5LDEzLjM0LTYuNDcsMjYuMjgtMTEuNTMsMzguNDUtMS4wMywyLjQ3LS43NSw1LjI5LjczLDcuNTEsMS40OCwyLjIyLDMuOTgsMy41Niw2LjY1LDMuNTZaTTEyMy44NSwxMTMuNTNjMi4xMy0xMC45OSwzLjQ1LTIyLjIzLDMuOTQtMzMuNTNoLjQxYy40OSwxMS4zLDEuODEsMjIuNTQsMy45NCwzMy41MywyLjAzLDEwLjQzLDQuNzgsMjAuNjMsOC4yMywzMC40N2gtMjQuNzZjMy40NS05Ljg0LDYuMjEtMjAuMDUsOC4yMy0zMC40N1oiLz4mI3hhOzwvc3ZnPg==;fontStyle=1" parent="urCsp88US3Rvxd7nxDVZ-52" vertex="1">
                    <mxGeometry x="-270" y="2291" width="70" height="70" as="geometry"/>
                </mxCell>
                <mxCell id="0hETNHY3sNTcF9YFYVwX-125" style="edgeStyle=orthogonalEdgeStyle;rounded=0;orthogonalLoop=1;jettySize=auto;html=1;exitX=0.5;exitY=0;exitDx=0;exitDy=0;" parent="urCsp88US3Rvxd7nxDVZ-52" source="0hETNHY3sNTcF9YFYVwX-108" edge="1">
                    <mxGeometry relative="1" as="geometry">
                        <mxPoint x="100" y="2400" as="targetPoint"/>
                        <Array as="points">
                            <mxPoint x="225" y="2560"/>
                            <mxPoint x="100" y="2560"/>
                        </Array>
                    </mxGeometry>
                </mxCell>
                <mxCell id="0hETNHY3sNTcF9YFYVwX-108" value="OData Source" style="shape=image;verticalLabelPosition=bottom;labelBackgroundColor=none;verticalAlign=top;aspect=fixed;imageAspect=0;image=data:image/svg+xml,PHN2ZyB4bWxucz0iaHR0cDovL3d3dy53My5vcmcvMjAwMC9zdmciIHZpZXdCb3g9IjAgMCAyNTYgMjU2IiBoZWlnaHQ9IjI1NiIgd2lkdGg9IjI1NiIgaWQ9Im9kYXRhLXNvdXJjZSI+JiN4YTsgIDxwYXRoIHN0eWxlPSJmaWxsOiAjMDAwOyBzdHJva2Utd2lkdGg6IDBweDsiIGQ9Ik0yMzIsMEgyNEMxMC43NywwLDAsMTAuNzcsMCwyNHY2My42OGMwLC4xLjAxLjIuMDIuMzEsMCwuMS0uMDIuMi0uMDIuMzF2NzkuNDVjMCwuMTcuMDIuMzMuMDMuNSwwLC4xNy0uMDMuMzMtLjAzLjV2NjMuMjZjMCwxMy4yMywxMC43NywyNCwyNCwyNGgyMDhjMTMuMjMsMCwyNC0xMC43NywyNC0yNFYyNGMwLTEzLjIzLTEwLjc3LTI0LTI0LTI0Wk0xNzYsMTZoNTZjNC40MSwwLDgsMy41OSw4LDh2NTZoLTY0VjE2Wk05NiwxNmg2NHY2NGgtNjRWMTZaTTE2LDI0YzAtNC40MSwzLjU5LTgsOC04aDU2djY0SDE2VjI0Wk04MCwxNjBIMTZ2LTY0aDY0djY0Wk04MCwyNDBIMjRjLTQuNDEsMC04LTMuNTktOC04di01Nmg2NHY2NFpNMjQwLDIzMmMwLDQuNDEtMy41OSw4LTgsOEg5NlY5NmgxNDR2MTM2WiIvPiYjeGE7ICA8cGF0aCBzdHlsZT0iZmlsbDogIzAwMDsgc3Ryb2tlLXdpZHRoOiAwcHg7IiBkPSJNMTEyLDIyNGgxMDBjNi42MiwwLDEyLTUuMzgsMTItMTJ2LTEwMGgtMTEydjExMloiLz4mI3hhOzwvc3ZnPg==;fontStyle=1" parent="urCsp88US3Rvxd7nxDVZ-52" vertex="1">
                    <mxGeometry x="190" y="2712" width="70" height="70" as="geometry"/>
                </mxCell>
                <mxCell id="0hETNHY3sNTcF9YFYVwX-121" style="edgeStyle=orthogonalEdgeStyle;rounded=0;orthogonalLoop=1;jettySize=auto;html=1;" parent="urCsp88US3Rvxd7nxDVZ-52" edge="1">
                    <mxGeometry relative="1" as="geometry">
                        <mxPoint x="225" y="2890" as="sourcePoint"/>
                        <mxPoint x="225" y="2810" as="targetPoint"/>
                    </mxGeometry>
                </mxCell>
                <mxCell id="0hETNHY3sNTcF9YFYVwX-111" value="OData Service" style="shape=image;verticalLabelPosition=bottom;labelBackgroundColor=none;verticalAlign=top;aspect=fixed;imageAspect=0;image=data:image/svg+xml,PHN2ZyB4bWxucz0iaHR0cDovL3d3dy53My5vcmcvMjAwMC9zdmciIHZpZXdCb3g9IjAgMCAyNTYgMjU2IiBoZWlnaHQ9IjI1NiIgd2lkdGg9IjI1NiIgaWQ9ImRvY3VtZW50YXRpb24iPiYjeGE7ICA8cGF0aCBzdHlsZT0iZmlsbDogIzAwMDsgc3Ryb2tlOiAjMDAwOyBzdHJva2UtbWl0ZXJsaW1pdDogMTA7IiBkPSJNNzIsMTQ0Yy00LjQyLDAtOCwzLjU4LTgsOHY1NS4xOWMwLDI2LjI4LDIwLjc5LDQ4LjMsNDcuMDcsNDguOCwyNi44OS41MSw0OC45My0yMS4yMiw0OC45My00Ny45OXYtNjRjMC0xNS43Mi03LjU5LTI5LjY5LTE5LjMtMzguNDUtNS4yMy0zLjkxLTEyLjctLjA1LTEyLjcsNi40OCwwLDIuNTUsMS4yNCw0LjkxLDMuMjcsNi40NSw3LjczLDUuODUsMTIuNzMsMTUuMTEsMTIuNzMsMjUuNTJ2NjMuMzZjMCwxNy45LTE0LjY1LDMyLjk0LTMyLjU1LDMyLjYzLTE3LjM5LS4zLTMxLjQ1LTE0LjU0LTMxLjQ1LTMydi01NmMwLTQuNDItMy41OC04LTgtOFoiLz4mI3hhOyAgPHBhdGggc3R5bGU9ImZpbGw6ICMwMDA7IHN0cm9rZTogIzAwMDsgc3Ryb2tlLW1pdGVybGltaXQ6IDEwOyIgZD0iTTExNS4zLDE1MC40NGM1LjIzLDMuOTEsMTIuNy4wNiwxMi43LTYuNDgsMC0yLjU1LTEuMjQtNC45MS0zLjI3LTYuNDQtNy43My01Ljg1LTEyLjczLTE1LjExLTEyLjczLTI1LjUydi02My4zNmMwLTE3LjksMTQuNjUtMzIuOTQsMzIuNTUtMzIuNjMsMTcuMzkuMywzMS40NSwxNC41MywzMS40NSwzMnY1NmMwLDQuNDIsMy41OCw4LDgsOHM4LTMuNTgsOC04di01NkMxOTIsMjEuMjIsMTY5Ljk2LS41LDE0My4wNywwYy0yNi4yOC41LTQ3LjA3LDIyLjUxLTQ3LjA3LDQ4Ljh2NjMuMTljMCwxNS43MSw3LjU5LDI5LjY4LDE5LjMsMzguNDRaIi8+JiN4YTsgIDxwYXRoIHN0eWxlPSJmaWxsOiAjMDAwOyBzdHJva2U6ICMwMDA7IHN0cm9rZS1taXRlcmxpbWl0OiAxMDsiIGQ9Ik0xODkuNjYsMjEwLjM0Yy0zLjEyLTMuMTItOC4xOS0zLjEyLTExLjMxLDAtMy4xMiwzLjEyLTMuMTIsOC4xOSwwLDExLjMxbDMyLDMyYzEuNTYsMS41NiwzLjYxLDIuMzQsNS42NiwyLjM0czQuMDktLjc4LDUuNjYtMi4zNGwzMi0zMmMzLjEyLTMuMTIsMy4xMi04LjE5LDAtMTEuMzEtMy4xMi0zLjEyLTguMTktMy4xMi0xMS4zMSwwbC0xOC4zNCwxOC4zNFY4MGMwLTQuNDItMy41OC04LTgtOHMtOCwzLjU4LTgsOHYxNDguNjlsLTE4LjM0LTE4LjM0WiIvPiYjeGE7ICA8cGF0aCBzdHlsZT0iZmlsbDogIzAwMDsgc3Ryb2tlOiAjMDAwOyBzdHJva2UtbWl0ZXJsaW1pdDogMTA7IiBkPSJNOCw0OGMyLjA1LDAsNC4wOS0uNzgsNS42Ni0yLjM0bDE4LjM0LTE4LjM0djE0OC42OWMwLDQuNDIsMy41OCw4LDgsOHM4LTMuNTgsOC04VjI0LjcybDE3Ljk4LDIwLjU1YzEuNTgsMS44MSwzLjgsMi43Myw2LjAyLDIuNzMsMS44NywwLDMuNzUtLjY1LDUuMjYtMS45OCwzLjMzLTIuOTEsMy42Ni03Ljk2Ljc1LTExLjI5TDUwLjAyLDIuNzNjLTIuMDYtMi4zNS01LjE5LTMuMi04LjAyLTIuNDctMi42NS0uNjgtNS41OCwwLTcuNjUsMi4wOEwyLjM0LDM0LjM0Yy0zLjEyLDMuMTItMy4xMiw4LjE5LDAsMTEuMzEsMS41NiwxLjU2LDMuNjEsMi4zNCw1LjY2LDIuMzRaIi8+JiN4YTs8L3N2Zz4=;fontStyle=1" parent="urCsp88US3Rvxd7nxDVZ-52" vertex="1">
                    <mxGeometry x="190" y="2910" width="70" height="70" as="geometry"/>
                </mxCell>
                <mxCell id="0hETNHY3sNTcF9YFYVwX-120" style="edgeStyle=orthogonalEdgeStyle;rounded=0;orthogonalLoop=1;jettySize=auto;html=1;" parent="urCsp88US3Rvxd7nxDVZ-52" edge="1">
                    <mxGeometry relative="1" as="geometry">
                        <mxPoint x="-95" y="2890" as="sourcePoint"/>
                        <mxPoint x="-95" y="2820" as="targetPoint"/>
                    </mxGeometry>
                </mxCell>
                <mxCell id="0hETNHY3sNTcF9YFYVwX-112" value="ABAP Class" style="shape=image;verticalLabelPosition=bottom;labelBackgroundColor=none;verticalAlign=top;aspect=fixed;imageAspect=0;image=data:image/svg+xml,PHN2ZyB4bWxucz0iaHR0cDovL3d3dy53My5vcmcvMjAwMC9zdmciIHZpZXdCb3g9IjAgMCAyNTYgMjU2IiBoZWlnaHQ9IjI1NiIgd2lkdGg9IjI1NiIgaWQ9ImRvY3VtZW50YXRpb24iPiYjeGE7ICA8cGF0aCBzdHlsZT0iZmlsbDogIzAwMDsgc3Ryb2tlOiAjMDAwOyBzdHJva2UtbWl0ZXJsaW1pdDogMTA7IiBkPSJNMTI4LDBDNTcuNDIsMCwwLDU3LjQyLDAsMTI4czU3LjQyLDEyOCwxMjgsMTI4LDEyOC01Ny40MiwxMjgtMTI4UzE5OC41OCwwLDEyOCwwWk0xMjgsMjQwYy02MS43NiwwLTExMi01MC4yNC0xMTItMTEyUzY2LjI0LDE2LDEyOCwxNnMxMTIsNTAuMjQsMTEyLDExMi01MC4yNCwxMTItMTEyLDExMloiLz4mI3hhOyAgPHBhdGggc3R5bGU9ImZpbGw6ICMwMDA7IHN0cm9rZTogIzAwMDsgc3Ryb2tlLW1pdGVybGltaXQ6IDEwOyIgZD0iTTIwNy45OCwxMjcuNThjMC0uMTEsMC0uMjMtLjAyLS4zNC0uMDItLjE2LS4wNC0uMzItLjA3LS40OC0uMDEtLjA5LS4wMi0uMTgtLjA0LS4yOC0uMDMtLjE2LS4wNy0uMzItLjExLS40OC0uMDItLjA5LS4wNC0uMTgtLjA3LS4yNy0uMDQtLjE0LS4xLS4yOS0uMTUtLjQzLS4wNC0uMS0uMDctLjIxLS4xMS0uMzEtLjA1LS4xMi0uMTEtLjIzLS4xNi0uMzUtLjA2LS4xMi0uMTEtLjI1LS4xOC0uMzctLjA1LS4wOS0uMS0uMTgtLjE2LS4yNy0uMDgtLjE0LS4xNi0uMjgtLjI1LS40Mi0uMDUtLjA4LS4xMS0uMTUtLjE2LS4yMy0uMS0uMTQtLjItLjI4LS4zMi0uNDItLjAxLS4wMi0uMDMtLjA0LS4wNC0uMDUtLjA2LS4wNy0uMTItLjEzLS4xOC0uMi0uMS0uMTEtLjItLjIzLS4zMS0uMzQtLjExLS4xMS0uMjMtLjIyLS4zNS0uMzItLjA2LS4wNi0uMTItLjEyLS4xOS0uMTdsLTIxLjEyLTE3LjZ2LTMyLjI1YzAtMTMuMjMtMTAuNzctMjQtMjQtMjRoLThjLTQuNDIsMC04LDMuNTgtOCw4czMuNTgsOCw4LDhoOGM0LjQxLDAsOCwzLjU5LDgsOHYzNS45Nmgwdi4wNGMwLC4wOCwwLC4xNi4wMS4yNCwwLC4xOCwwLC4zNS4wMy41My4wMS4xMy4wNC4yNy4wNi40LjAyLjEyLjAzLjI1LjA2LjM3LjAzLjE1LjA3LjI5LjEuNDMuMDMuMTEuMDUuMjIuMDguMzIuMDQuMTQuMDkuMjguMTQuNDEuMDQuMTEuMDguMjIuMTIuMzMuMDUuMTIuMTEuMjQuMTYuMzYuMDYuMTIuMTEuMjQuMTcuMzUuMDYuMS4xMi4yLjE4LjMxLjA3LjEyLjE0LjI1LjIyLjM3LjA2LjA5LjEzLjE4LjIuMjcuMDkuMTIuMTcuMjQuMjYuMzUuMDguMS4xNy4xOS4yNS4yOS4wOS4xLjE3LjIuMjcuMjkuMTMuMTMuMjcuMjUuNC4zNy4wNS4wNS4xLjEuMTYuMTVsLjAzLjAyczAsMCwwLDBsMTYuNTksMTMuODItMTYuNTksMTMuODJzMCwwLDAsMGwtLjAzLjAyYy0uMDYuMDUtLjExLjEtLjE2LjE1LS4xNC4xMi0uMjguMjQtLjQuMzctLjA5LjA5LS4xOC4xOS0uMjcuMjktLjA4LjA5LS4xNy4xOS0uMjUuMjktLjA5LjExLS4xOC4yMy0uMjYuMzUtLjA3LjA5LS4xNC4xOC0uMi4yNy0uMDguMTItLjE1LjI0LS4yMi4zNy0uMDYuMS0uMTIuMi0uMTguMzEtLjA2LjEyLS4xMS4yNC0uMTcuMzUtLjA2LjEyLS4xMS4yNC0uMTYuMzYtLjA0LjExLS4wOC4yMi0uMTIuMzMtLjA1LjE0LS4xLjI3LS4xNC40MS0uMDMuMTEtLjA2LjIxLS4wOC4zMi0uMDQuMTQtLjA3LjI5LS4xLjQzLS4wMi4xMi0uMDQuMjUtLjA2LjM3LS4wMi4xMy0uMDQuMjYtLjA2LjQtLjAyLjE4LS4wMi4zNS0uMDMuNTMsMCwuMDgtLjAxLjE2LS4wMS4yNHYuMDRoMHYzNS45NmMwLDQuNDEtMy41OSw4LTgsOGgtOGMtNC40MiwwLTgsMy41OC04LDhzMy41OCw4LDgsOGg4YzEzLjIzLDAsMjQtMTAuNzcsMjQtMjR2LTMyLjI1bDIxLjEyLTE3LjZjLjA3LS4wNi4xNC0uMTMuMjEtLjE5LjA5LS4wOC4xOS0uMTcuMjgtLjI2LjE0LS4xNC4yNy0uMjguNC0uNDIuMDUtLjA1LjEtLjEuMTQtLjE1LjAxLS4wMi4wMy0uMDQuMDQtLjA1LjExLS4xNC4yMS0uMjguMzItLjQyLjA1LS4wOC4xMS0uMTUuMTYtLjIzLjA5LS4xNC4xNy0uMjguMjUtLjQyLjA1LS4wOS4xMS0uMTguMTYtLjI3LjA2LS4xMi4xMi0uMjUuMTgtLjM3LjA1LS4xMi4xMS0uMjMuMTYtLjM1LjA0LS4xLjA3LS4yMS4xMS0uMzEuMDUtLjE0LjEtLjI4LjE1LS40My4wMy0uMDkuMDQtLjE4LjA3LS4yNy4wNC0uMTYuMDgtLjMyLjExLS40OC4wMi0uMDkuMDMtLjE4LjA0LS4yOC4wMi0uMTYuMDUtLjMyLjA3LS40OC4wMS0uMTEuMDEtLjIzLjAyLS4zNCwwLS4xNC4wMi0uMjguMDItLjQycy0uMDEtLjI4LS4wMi0uNDJaIi8+JiN4YTsgIDxwYXRoIHN0eWxlPSJmaWxsOiAjMDAwOyBzdHJva2U6ICMwMDA7IHN0cm9rZS1taXRlcmxpbWl0OiAxMDsiIGQ9Ik05Niw2NGg4YzQuNDIsMCw4LTMuNTgsOC04cy0zLjU4LTgtOC04aC04Yy0xMy4yMywwLTI0LDEwLjc3LTI0LDI0djMyLjI1bC0yMS4xMiwxNy42Yy0uMDcuMDYtLjEzLjEyLS4xOS4xOC0uMTIuMS0uMjMuMjEtLjM0LjMyLS4xMS4xMS0uMjEuMjItLjMxLjM0LS4wNi4wNy0uMTIuMTMtLjE4LjE5LS4wMS4wMi0uMDMuMDQtLjA0LjA1LS4xMS4xNC0uMjEuMjgtLjMyLjQyLS4wNS4wOC0uMTEuMTUtLjE2LjIzLS4wOS4xNC0uMTcuMjgtLjI1LjQyLS4wNS4wOS0uMTEuMTgtLjE2LjI3LS4wNi4xMi0uMTIuMjUtLjE4LjM3LS4wNS4xMi0uMTEuMjMtLjE2LjM1LS4wNC4xLS4wNy4yMS0uMTEuMzEtLjA1LjE0LS4xLjI4LS4xNS40My0uMDMuMDktLjA0LjE4LS4wNy4yNy0uMDQuMTYtLjA4LjMyLS4xMS40OC0uMDIuMDktLjAzLjE4LS4wNC4yOC0uMDIuMTYtLjA1LjMyLS4wNy40OC0uMDEuMTEtLjAxLjIzLS4wMi4zNCwwLC4xNC0uMDIuMjgtLjAyLjQycy4wMS4yOC4wMi40MmMwLC4xMSwwLC4yMy4wMi4zNC4wMi4xNi4wNC4zMi4wNy40OC4wMS4wOS4wMi4xOC4wNC4yOC4wMy4xNi4wNy4zMi4xMS40OC4wMi4wOS4wNC4xOC4wNy4yNy4wNC4xNC4xLjI5LjE1LjQzLjA0LjEuMDcuMjEuMTEuMzEuMDUuMTIuMTEuMjMuMTYuMzUuMDYuMTIuMTEuMjUuMTguMzcuMDUuMDkuMS4xOC4xNi4yNy4wOC4xNC4xNi4yOC4yNS40Mi4wNS4wOC4xMS4xNS4xNi4yMy4xLjE0LjIuMjguMzIuNDIuMDEuMDIuMDMuMDQuMDQuMDUuMDQuMDUuMDkuMS4xNC4xNS4xMy4xNC4yNi4yOS4zOS40Mi4wOS4wOS4xOS4xOC4yOS4yNy4wNy4wNi4xMy4xMy4yLjE5bDIxLjEyLDE3LjZ2MzIuMjVjMCwxMy4yMywxMC43NywyNCwyNCwyNGg4YzQuNDIsMCw4LTMuNTgsOC04cy0zLjU4LTgtOC04aC04Yy00LjQxLDAtOC0zLjU5LTgtOHYtMzUuOTZoMHYtLjA0YzAtLjA4LDAtLjE2LS4wMS0uMjQsMC0uMTgsMC0uMzUtLjAzLS41My0uMDEtLjEzLS4wNC0uMjctLjA2LS40LS4wMi0uMTItLjAzLS4yNS0uMDYtLjM3LS4wMy0uMTUtLjA3LS4yOS0uMS0uNDMtLjAzLS4xMS0uMDUtLjIyLS4wOC0uMzItLjA0LS4xNC0uMDktLjI4LS4xNC0uNDEtLjA0LS4xMS0uMDgtLjIyLS4xMi0uMzMtLjA1LS4xMi0uMTEtLjI0LS4xNi0uMzYtLjA2LS4xMi0uMTEtLjI0LS4xNy0uMzUtLjA2LS4xLS4xMi0uMi0uMTgtLjMxLS4wNy0uMTItLjE0LS4yNS0uMjItLjM3LS4wNi0uMDktLjEzLS4xOC0uMi0uMjctLjA5LS4xMi0uMTctLjI0LS4yNi0uMzUtLjA4LS4xLS4xNy0uMTktLjI1LS4yOS0uMDktLjEtLjE3LS4yLS4yNy0uMjktLjEzLS4xMy0uMjctLjI1LS40LS4zNy0uMDUtLjA1LS4xLS4xLS4xNi0uMTVsLS4wMy0uMDJzMCwwLDAsMGwtMTYuNTktMTMuODIsMTYuNTktMTMuODJzMCwwLDAsMGwuMDMtLjAyYy4wNi0uMDUuMTEtLjEuMTYtLjE1LjE0LS4xMi4yOC0uMjQuNC0uMzcuMDktLjA5LjE4LS4xOS4yNy0uMjkuMDgtLjA5LjE3LS4xOS4yNS0uMjkuMDktLjExLjE4LS4yMy4yNi0uMzUuMDctLjA5LjE0LS4xOC4yLS4yNy4wOC0uMTIuMTUtLjI0LjIyLS4zNy4wNi0uMS4xMi0uMi4xOC0uMzEuMDYtLjEyLjExLS4yNC4xNy0uMzUuMDYtLjEyLjExLS4yNC4xNi0uMzYuMDQtLjExLjA4LS4yMi4xMi0uMzMuMDUtLjE0LjEtLjI3LjE0LS40MS4wMy0uMTEuMDYtLjIxLjA4LS4zMi4wNC0uMTQuMDctLjI5LjEtLjQzLjAyLS4xMi4wNC0uMjUuMDYtLjM3LjAyLS4xMy4wNC0uMjYuMDYtLjQuMDItLjE4LjAyLS4zNS4wMy0uNTMsMC0uMDguMDEtLjE2LjAxLS4yNHYtLjA0aDB2LTM1Ljk2YzAtNC40MSwzLjU5LTgsOC04WiIvPiYjeGE7PC9zdmc+;fontStyle=1" parent="urCsp88US3Rvxd7nxDVZ-52" vertex="1">
                    <mxGeometry x="-130" y="2910" width="70" height="70" as="geometry"/>
                </mxCell>
                <mxCell id="0hETNHY3sNTcF9YFYVwX-115" value="HANA DB" style="shape=image;verticalLabelPosition=bottom;labelBackgroundColor=none;verticalAlign=top;aspect=fixed;imageAspect=0;image=data:image/svg+xml,PHN2ZyB4bWxucz0iaHR0cDovL3d3dy53My5vcmcvMjAwMC9zdmciIHZpZXdCb3g9IjAgMCAyNTYgMjU2IiBoZWlnaHQ9IjI1NiIgd2lkdGg9IjI1NiIgaWQ9ImRhdGEtc291cmNlIj4mI3hhOyAgPHBhdGggc3R5bGU9ImZpbGw6ICMwMDA7IHN0cm9rZS13aWR0aDogMHB4OyIgZD0iTTIxNC45MSw5LjY0QzE5MS42LDMuNDIsMTYwLjczLDAsMTI4LDBzLTYzLjYsMy40Mi04Ni45MSw5LjY0QzEzLjgyLDE2LjkxLDAsMjcuMTMsMCw0MHYxNzZjMCwxMi44NywxMy44MiwyMy4wOSw0MS4wOSwzMC4zNiwyMy4zMiw2LjIyLDU0LjE5LDkuNjQsODYuOTEsOS42NHM2My42LTMuNDIsODYuOTEtOS42NGMyNy4yNi03LjI3LDQxLjA5LTE3LjQ4LDQxLjA5LTMwLjM2VjQwYzAtMTIuODctMTMuODItMjMuMDktNDEuMDktMzAuMzZaTTI0MCwxNTJjMCwxLjUtNC45Niw4LjQzLTI5LjIxLDE0LjktMjIuMDEsNS44Ny01MS40MSw5LjEtODIuNzksOS4xcy02MC43OC0zLjIzLTgyLjc5LTkuMWMtMjQuMjUtNi40Ny0yOS4yMS0xMy40LTI5LjIxLTE0Ljl2LTI3LjExYzYuNDQsMy41NiwxNC44MSw2LjcyLDI1LjA5LDkuNDcsMjMuMzIsNi4yMiw1NC4xOSw5LjY0LDg2LjkxLDkuNjRzNjMuNi0zLjQyLDg2LjkxLTkuNjRjMTAuMjgtMi43NCwxOC42NS01LjksMjUuMDktOS40N3YyNy4xMVpNMjQwLDEwNGMwLDEuNS00Ljk2LDguNDMtMjkuMjEsMTQuOS0yMi4wMSw1Ljg3LTUxLjQxLDkuMS04Mi43OSw5LjFzLTYwLjc4LTMuMjMtODIuNzktOS4xYy0yNC4yNS02LjQ3LTI5LjIxLTEzLjQtMjkuMjEtMTQuOXYtNDMuMTFjNi40NCwzLjU2LDE0LjgxLDYuNzIsMjUuMDksOS40NywyMy4zMiw2LjIyLDU0LjE5LDkuNjQsODYuOTEsOS42NHM2My42LTMuNDIsODYuOTEtOS42NGMxMC4yOC0yLjc0LDE4LjY1LTUuOSwyNS4wOS05LjQ3djQzLjExWk00NS4yMSwyNS4xYzIyLjAxLTUuODcsNTEuNDEtOS4xLDgyLjc5LTkuMXM2MC43OCwzLjIzLDgyLjc5LDkuMWMyNC4yNSw2LjQ3LDI5LjIxLDEzLjQsMjkuMjEsMTQuOXMtNC45Niw4LjQzLTI5LjIxLDE0LjljLTIyLjAxLDUuODctNTEuNDEsOS4xLTgyLjc5LDkuMXMtNjAuNzgtMy4yMy04Mi43OS05LjFjLTI0LjI1LTYuNDctMjkuMjEtMTMuNC0yOS4yMS0xNC45czQuOTYtOC40MywyOS4yMS0xNC45Wk0yMTAuNzksMjMwLjljLTIyLjAxLDUuODctNTEuNDEsOS4xLTgyLjc5LDkuMXMtNjAuNzgtMy4yMy04Mi43OS05LjFjLTI0LjI1LTYuNDctMjkuMjEtMTMuNC0yOS4yMS0xNC45di00My4xMWM2LjQ0LDMuNTYsMTQuODEsNi43MiwyNS4wOSw5LjQ3LDIzLjMyLDYuMjIsNTQuMTksOS42NCw4Ni45MSw5LjY0czYzLjYtMy40Miw4Ni45MS05LjY0YzEwLjI4LTIuNzQsMTguNjUtNS45LDI1LjA5LTkuNDd2NDMuMTFjMCwxLjUtNC45Niw4LjQzLTI5LjIxLDE0LjlaIi8+JiN4YTs8L3N2Zz4=;fontStyle=1" parent="urCsp88US3Rvxd7nxDVZ-52" vertex="1">
                    <mxGeometry x="400.0000000000001" y="2910" width="70" height="70" as="geometry"/>
                </mxCell>
                <mxCell id="0hETNHY3sNTcF9YFYVwX-119" style="edgeStyle=orthogonalEdgeStyle;rounded=0;orthogonalLoop=1;jettySize=auto;html=1;" parent="urCsp88US3Rvxd7nxDVZ-52" source="0hETNHY3sNTcF9YFYVwX-117" target="DWezz2kGn4aSGZSSvi70-5" edge="1">
                    <mxGeometry relative="1" as="geometry"/>
                </mxCell>
                <mxCell id="0hETNHY3sNTcF9YFYVwX-117" value="SAP Roles &amp; Authorizations" style="shape=image;verticalLabelPosition=bottom;labelBackgroundColor=none;verticalAlign=top;aspect=fixed;imageAspect=0;image=data:image/svg+xml,PHN2ZyB4bWxucz0iaHR0cDovL3d3dy53My5vcmcvMjAwMC9zdmciIHZpZXdCb3g9IjAgMCAyNTYgMjU2IiBoZWlnaHQ9IjI1NiIgd2lkdGg9IjI1NiIgaWQ9InVzZXItcm9sZSI+JiN4YTsgIDxwYXRoIHN0eWxlPSJmaWxsOiAjMDAwOyBzdHJva2Utd2lkdGg6IDBweDsiIGQ9Ik0xNDcuOTQsMTE3LjM0YzIuNTYtMy44Miw0LjA2LTguNDEsNC4wNi0xMy4zNCwwLTEzLjIzLTEwLjc3LTI0LTI0LTI0cy0yNCwxMC43Ny0yNCwyNGMwLDQuOTQsMS41LDkuNTMsNC4wNiwxMy4zNC0xMS45OCw2LjkyLTIwLjA2LDE5Ljg2LTIwLjA2LDM0LjY2LDAsNy4wMiwxLjg2LDEzLjk0LDUuMzcsMjAuMDEsMS40MywyLjQ3LDQuMDcsMy45OSw2LjkyLDMuOTloNTUuNDJjMi44NiwwLDUuNDktMS41Miw2LjkyLTMuOTksMy41MS02LjA3LDUuMzctMTIuOTksNS4zNy0yMC4wMSwwLTE0LjgtOC4wOC0yNy43NC0yMC4wNi0zNC42NlpNMTIwLDEwNGMwLTQuNDEsMy41OS04LDgtOHM4LDMuNTksOCw4LTMuNTksOC04LDgtOC0zLjU5LTgtOFpNMTUwLjYzLDE2MGgtNDUuMjVjLS45MS0yLjU2LTEuMzctNS4yNy0xLjM3LTgsMC0xMy4yMywxMC43Ny0yNCwyNC0yNHMyNCwxMC43NywyNCwyNGMwLDIuNzMtLjQ3LDUuNDQtMS4zNyw4WiIvPiYjeGE7ICA8cGF0aCBzdHlsZT0iZmlsbDogIzAwMDsgc3Ryb2tlLXdpZHRoOiAwcHg7IiBkPSJNMTI4LDQ4YzkuNDksMCwxNy43MS01LjU0LDIxLjYtMTMuNTUsMjYuODIsNi4yLDUwLjExLDIzLjk0LDYzLjE5LDQ4LjQ4LDEuNDQsMi43LDQuMjEsNC4yNCw3LjA3LDQuMjQsMS4yNywwLDIuNTYtLjMsMy43NS0uOTQsMy45LTIuMDgsNS4zOC02LjkyLDMuMy0xMC44Mi0xNS41NS0yOS4xOC00My40OS01MC4xMy03NS41Ni01Ni45Ni0yLjUxLTEwLjU2LTEyLjAyLTE4LjQ1LTIzLjM0LTE4LjQ1LTEzLjIzLDAtMjQsMTAuNzctMjQsMjRzMTAuNzcsMjQsMjQsMjRaTTEyOCwxNmM0LjQxLDAsOCwzLjU5LDgsOHMtMy41OSw4LTgsOC04LTMuNTktOC04LDMuNTktOCw4LThaIi8+JiN4YTsgIDxwYXRoIHN0eWxlPSJmaWxsOiAjMDAwOyBzdHJva2Utd2lkdGg6IDBweDsiIGQ9Ik0xMjgsMjA4Yy05LjQ5LDAtMTcuNzEsNS41NC0yMS42LDEzLjU1LTI3LjA5LTYuMjYtNTAuNjItMjQuMzgtNjMuNTgtNDkuMjItMi4wNC0zLjkyLTYuODgtNS40NC0xMC43OS0zLjM5LTMuOTIsMi4wNC01LjQ0LDYuODgtMy4zOSwxMC43OSwxNS40LDI5LjUzLDQzLjY0LDUwLjk0LDc2LjAyLDU3LjgzLDIuNTEsMTAuNTYsMTIuMDIsMTguNDQsMjMuMzQsMTguNDQsMTMuMjMsMCwyNC0xMC43NywyNC0yNHMtMTAuNzctMjQtMjQtMjRaTTEyOCwyNDBjLTQuNDEsMC04LTMuNTktOC04czMuNTktOCw4LTgsOCwzLjU5LDgsOC0zLjU5LDgtOCw4WiIvPiYjeGE7ICA8cGF0aCBzdHlsZT0iZmlsbDogIzAwMDsgc3Ryb2tlLXdpZHRoOiAwcHg7IiBkPSJNMjU2LDEyOGMwLTEzLjIzLTEwLjc3LTI0LTI0LTI0cy0yNCwxMC43Ny0yNCwyNGMwLDkuNDksNS41NCwxNy43MSwxMy41NSwyMS42LTYuMjEsMjYuODgtMjQuMTYsNTAuMzItNDguNzQsNjMuMzItMy45MSwyLjA3LTUuNCw2LjkxLTMuMzMsMTAuODEsMS40MywyLjcxLDQuMjEsNC4yNiw3LjA4LDQuMjYsMS4yNiwwLDIuNTQtLjMsMy43My0uOTMsMjkuMjItMTUuNDYsNTAuNDItNDMuNTgsNTcuMjYtNzUuNzIsMTAuNTYtMi41MSwxOC40NC0xMi4wMiwxOC40NC0yMy4zNFpNMjMyLDEzNmMtNC40MSwwLTgtMy41OS04LThzMy41OS04LDgtOCw4LDMuNTksOCw4LTMuNTksOC04LDhaIi8+JiN4YTsgIDxwYXRoIHN0eWxlPSJmaWxsOiAjMDAwOyBzdHJva2Utd2lkdGg6IDBweDsiIGQ9Ik00OCwxMjhjMC05LjQ5LTUuNTQtMTcuNzEtMTMuNTUtMjEuNiw2LjI4LTI3LjE5LDI0LjQ4LTUwLjc2LDQ5LjQ2LTYzLjcsMy45Mi0yLjAzLDUuNDYtNi44NiwzLjQyLTEwLjc4LTIuMDMtMy45Mi02Ljg2LTUuNDYtMTAuNzgtMy40Mi0yOS42OSwxNS4zOC01MS4xOCw0My42Ni01OC4xLDc2LjE2LTEwLjU2LDIuNTEtMTguNDUsMTIuMDItMTguNDUsMjMuMzQsMCwxMy4yMywxMC43NywyNCwyNCwyNHMyNC0xMC43NywyNC0yNFpNMjQsMTM2Yy00LjQxLDAtOC0zLjU5LTgtOHMzLjU5LTgsOC04LDgsMy41OSw4LDgtMy41OSw4LTgsOFoiLz4mI3hhOzwvc3ZnPg==;fontStyle=1" parent="urCsp88US3Rvxd7nxDVZ-52" vertex="1">
                    <mxGeometry x="-300" y="2910" width="70" height="70" as="geometry"/>
                </mxCell>
                <mxCell id="0hETNHY3sNTcF9YFYVwX-127" value="&lt;font style=&quot;font-size: 20px;&quot;&gt;Authentication&lt;/font&gt;" style="text;strokeColor=none;fillColor=none;html=1;fontSize=24;fontStyle=1;verticalAlign=middle;align=right;" parent="urCsp88US3Rvxd7nxDVZ-52" vertex="1">
                    <mxGeometry x="-510" y="1640.0000000000005" width="67" height="22.62" as="geometry"/>
                </mxCell>
                <mxCell id="ryjr82bQ7CvwKwg2id3d-1" value="" style="group" parent="urCsp88US3Rvxd7nxDVZ-52" vertex="1" connectable="0">
                    <mxGeometry x="-31" y="2060" width="200" height="100" as="geometry"/>
                </mxCell>
                <mxCell id="ryjr82bQ7CvwKwg2id3d-2" value="" style="shape=image;verticalLabelPosition=bottom;labelBackgroundColor=default;verticalAlign=top;aspect=fixed;imageAspect=0;image=data:image/svg+xml,PHN2ZyB4bWxucz0iaHR0cDovL3d3dy53My5vcmcvMjAwMC9zdmciIHZpZXdCb3g9IjAgMCAyNTYgMjU2IiBoZWlnaHQ9IjI1NiIgd2lkdGg9IjI1NiIgaWQ9InVpNSI+JiN4YTsgIDxwYXRoIHN0eWxlPSJmaWxsOiAjMDAwOyBzdHJva2Utd2lkdGg6IDBweDsiIGQ9Ik0yNDYuNzcsMTE0LjZjLTMuMTYtMjAuNzMtOS45MS0zNi42MS0yMS45Mi01MS41MS00LjI3LTUuMjgtMTQuNDktMTQuOTQtMjAuODEtMTkuNjItMTIuMjItOS4wNy0yMy4zMy0xNS4xNS00Ni41Ny0yNS41LTE1LjM0LTYuNzctMjUuMDQtMTEuNTQtMjguNzYtMTQuMDEtMS41OC0xLjA2LTIuOTktMS45Ni0zLjEyLTEuOTYtLjE3LDAtLjE3LjYsMCwxLjMyLjQ3LDIuNDMsMy4zOCw2LjUxLDcuNzMsMTAuODYsNSw1LjAyLDkuNjYsOC41MSwxOS44NywxNC45OCwxNC4zNiw5LjAyLDIwLjk4LDE0LjEzLDI5LjkxLDIzLjA3LDExLjQ5LDExLjQ1LDE4LjU0LDIyLjY5LDIxLjQ5LDM0LjQuNzMsMi45OC45LDQuOTQuOSwxMC4wOSwwLDUuNy0uMTMsNi43Ny0xLjE1LDEwLjEzLTMuNDIsMTEuMTEtMTAuOSwxOS41NC0yMC42NCwyMy4yOS0zLjI5LDEuMjgtOS43NCwxLjQ1LTEyLjM1LjMtMi4zMS0xLjAyLTQuOTEtMi44NS00LjkxLTMuNDUsMC0uMy45OC0xLjQ1LDIuMTQtMi42LDIuNjktMi42NCw1Ljk4LTcuMzYsNy40My0xMC42LDEuMzItMi45OCwyLjI2LTcuNDEsMi4wNS05LjQ1bC0uMTctMS40NS0xLjU4Ljk0Yy0zLjYzLDIuMjYtOC4wMyw0LjY0LTguOTMsNC45LTEuODQuNDMtMS45Mi0uMzQtLjczLTUuMDIuOS0zLjQ1LDEuMi01LjgzLDEuMzctMTAuODEuMjYtNi4zNC0uMDktMTIuOTgtLjY0LTEyLjk4LS4xNywwLTEuMDcsMS4xMS0yLjAxLDIuMzgtMy4xNiw0LjQzLTEwLjk0LDEwLjc3LTE2Ljg0LDEzLjc1LTEuNTQuODEtMS44NC44NS0xLjYyLjMsMS40NS0zLjc1LDEuNzUtNi4zLDEuNzUtMTMuNjctLjA0LTUuNjYtLjIxLTguMTctLjY4LTkuNTQtLjczLTIuMTMtMS42Mi0yLjgxLTEuNjItMS4yMy0uMDQsMy4xMS00LjEsOS42Mi05LjE0LDE0LjYtNi40MSw2LjM5LTE0LjU3LDExLjcxLTI3LjY1LDE4LjA1LTkuMzYsNC41MS0xNC40NCw3Ljc5LTE5LjM2LDEyLjM5LTcuMDksNi42OC05Ljc4LDEzLjAzLTguNDIsMTkuNjIuODEsMy44MywxLjE1LDQuMDQsMy42NywyLjM0LDUuMzQtMy41OCwxMi42OS0zLjc1LDE5LjMxLS40MywyLjg2LDEuNDUsNS40Myw0LjE3LDYuODgsNy4zMiwxLjU4LDMuNDksMS44NCw4Ljk4LjUxLDEyLjg2LTIuMDEsNS45Mi02Ljc1LDExLjQxLTEyLjA1LDE0LjAxLTQuNzksMi4zNC05LjEsMy4xNS0xNS4zLDIuODktNy45OS0uMzQtMTQuNC0yLjU1LTIxLjE5LTcuMzYtMy4xMi0yLjE3LTguODQtOC4xMy0xMS44NC0xMi4zLTQuMDYtNS42Ni03LjktMTQuNjktOS41Ny0yMi40OC0xLjA3LTQuOS0xLjA3LTE4LjE4LDAtMjMuMjksMy41OS0xNy4yNCwxMS4yNC0yOC45OSwyOS4xNC00NC44MywxMC4zLTkuMTUsMTQuNTMtMTMuNDksMTcuNi0xOC4wNSwyLjM1LTMuNTMsNS4yNi0xMC4wNSw0LjctMTAuNi0uMTMtLjEzLTIuMDEsMS4xOS00LjIzLDIuOTQtNS4xNyw0LjEzLTguOTMsNi42NC0xOS43OCwxMy40OS0xOC4zNywxMS41OC0yNC4wMSwxNS41OC0zMi41NiwyMy4wNy04LjgsNy43NS0xNi40OSwxNy4yLTIwLjY0LDI1LjUtNS42LDExLjA3LTguMDMsMjEuNTgtOC40MiwzNi4zNS0uNDMsMTYuOTksMi4yNiwzMC40NCw5LjA2LDQ1LjQ2LDQuMSw5LjAyLDEwLjksMTkuNzUsMTcuMzEsMjcuMzMsNi4zNyw3LjU4LDE2LjI4LDE2LjYsMjQuMTQsMjIuMDEsMjUuNjgsMTcuNjcsNTcuODUsMjQuNzMsODguNjYsMTkuNSwxMy41OS0yLjM0LDIzLjg0LTUuNzUsMzYuMTUtMTIuMDksMTAuNjgtNS40OSwxOS4xNC0xMS41OCwyNy45LTIwLjA1LDIwLjk0LTIwLjIyLDMyLjgyLTQ0LjI3LDM2LjE5LTczLjAxLjk0LTguMzQuNjQtMjMuOTctLjY4LTMyLjU3Wk0xMTAuNDIsMTIzLjA3Yy0uNjguODktMS4yNCwxLjExLTIuNjUsMS4xMS0xLjYyLDAtNy42NS0xLjYyLTguMi0yLjIxLS4xMy0uMTMsMS4yNC0xLjAyLDMuMDgtMS45Niw0LjE0LTIuMTcsNi40NS0yLjM4LDcuNzgtLjY4LjUxLjY0LjksMS40NS45LDEuODdzLS4zOCwxLjIzLS45LDEuODdaIi8+JiN4YTs8L3N2Zz4=;" parent="ryjr82bQ7CvwKwg2id3d-1" vertex="1">
                    <mxGeometry x="110" y="15" width="70" height="70" as="geometry"/>
                </mxCell>
                <mxCell id="ryjr82bQ7CvwKwg2id3d-3" value="" style="shape=image;verticalLabelPosition=bottom;labelBackgroundColor=default;verticalAlign=top;aspect=fixed;imageAspect=0;image=data:image/svg+xml,PHN2ZyB4bWxucz0iaHR0cDovL3d3dy53My5vcmcvMjAwMC9zdmciIHZpZXdCb3g9IjAgMCAyNTYgMjU2IiBoZWlnaHQ9IjI1NiIgd2lkdGg9IjI1NiIgaWQ9Im5lcHR1bmUtY29ubmVjdCI+JiN4YTsgIDxwYXRoIHN0eWxlPSJmaWxsOiAjMDAwOyBzdHJva2Utd2lkdGg6IDBweDsiIGQ9Ik0yMjQuMzksNzMuMDNoLTYzLjQ3bC0zMC43MSw1My4xOXMwLDAsMCwwYy0uMTguMjktMS4wMiwxLjg1LTEuMDIsMS44NSwwLDAtLjg2LTEuNTktMS4wMy0xLjg3aDBsLTE2LjMtMjguMjFoMGMtMTAuMzctMTcuOTMtMjkuNzctMzAtNTEuOTctMzBDMjYuNzQsNjgtLjEzLDk0Ljg2LS4xMywxMjhzMjYuODYsNjAsNjAsNjBjMTEuMSwwLDIxLjUtMy4wMiwzMC40Mi04LjI4LDguOTItNS4yNiwxNi4zNi0xMi43NiwyMS41NS0yMS43MmwuMjEtLjM2LDE2LjA5LTI3Ljg1czAsMCwwLDBjLjEzLS4yNSwxLjAzLTEuNywxLjAzLTEuNywwLDAsLjkxLDEuNDYsMS4wNCwxLjcxbDMwLjcsNTMuMTcsMzEuNzMtNTQuOTMsNjMuNDgtLjAzLTMxLjc0LTU0Ljk3WiIvPiYjeGE7PC9zdmc+;" parent="ryjr82bQ7CvwKwg2id3d-1" vertex="1">
                    <mxGeometry x="20" y="15" width="70" height="70" as="geometry"/>
                </mxCell>
                <mxCell id="ryjr82bQ7CvwKwg2id3d-4" value="&lt;b&gt;Neptune App&lt;/b&gt;" style="rounded=0;whiteSpace=wrap;html=1;fillColor=none;strokeWidth=2;labelPosition=center;verticalLabelPosition=bottom;align=center;verticalAlign=top;" parent="ryjr82bQ7CvwKwg2id3d-1" vertex="1">
                    <mxGeometry width="200" height="100" as="geometry"/>
                </mxCell>
                <mxCell id="1" value="Neptune DXP Capabilities" style="" parent="0"/>
            </root>
        </mxGraphModel>
    </diagram>
</mxfile>